<svg width="473" height="353" viewBox="0 0 473 353" fill="none" xmlns="http://www.w3.org/2000/svg">
<path d="M230.527 -289.195C228.775 -239.561 222.62 -189.788 200.546 -147.109C178.461 -104.557 138.44 -69.7129 86.5225 -61.8218C24.5103 -52.4124 -47.7593 -81.2921 -104.41 -59.8593C-141.069 -45.9721 -163.256 -13.8611 -186.287 15.1274C-209.381 44.1843 -238.315 72.9765 -279.322 75.9751C-352.842 81.3382 -427.158 1.89697 -498.744 13.9327C-545.958 21.9184 -568.891 65.9356 -601.505 95.8945C-642.794 133.765 -705.965 150.524 -768.914 140.252C-831.864 129.981 -893.316 92.8394 -931.834 41.9434" stroke="#1C2226" stroke-opacity="0.5" stroke-miterlimit="10"/>
<path d="M233.48 -280.56C231.479 -231.353 224.721 -182.045 202.312 -139.979C188.839 -114.571 168.88 -91.9281 143.878 -76.2355C127.565 -65.9703 109.018 -58.7237 88.7764 -55.4919C27.2801 -45.8024 -44.284 -73.0783 -100.857 -53.1167C-120.959 -46.0089 -136.972 -33.9821 -151.236 -19.6648C-163.317 -7.54941 -174.135 6.1282 -185.062 19.368C-200.341 37.966 -217.837 56.8569 -239.024 69.0153C-250.749 75.7524 -263.568 80.4687 -277.723 82.0355C-305.54 85.196 -333.393 76.3177 -361.336 64.8976C-401.639 48.5391 -442.411 26.9913 -482.893 28.0394C-487.231 28.1086 -491.536 28.5575 -495.893 29.2014C-543.442 36.5751 -567.23 77.343 -599.625 104.291C-631.445 130.623 -675.615 144.37 -723.392 143.797C-737.214 143.619 -751.289 142.185 -765.468 139.612C-790.983 134.892 -816.436 126.217 -840.341 114.495C-875.967 97.1503 -908.128 73.1755 -931.978 45.0121" stroke="#23292E" stroke-opacity="0.5" stroke-miterlimit="10"/>
<path d="M236.572 -271.935C234.183 -223.144 226.887 -174.37 204.229 -132.731C190.594 -107.566 170.676 -85.2445 145.801 -69.6889C129.553 -59.4922 111.22 -52.1979 91.0537 -48.908C30.1486 -38.8804 -40.6575 -64.7475 -97.1422 -46.1305C-117.417 -39.392 -133.864 -28.2885 -148.603 -14.5729C-161.147 -2.93255 -172.406 10.5231 -183.548 23.7153C-199.256 42.2179 -216.879 61.2458 -237.806 73.9581C-249.369 80.9379 -261.875 86.0132 -275.909 88.1443C-303.141 92.3442 -330.417 85.2067 -357.933 75.4112C-397.601 61.4263 -438.573 42.3145 -479.612 43.4042C-484.014 43.5419 -488.33 43.8642 -492.687 44.5081C-540.56 51.3963 -565.075 88.7781 -597.402 112.599C-629.004 135.92 -672.172 146.79 -719.488 144.334C-733.217 143.639 -747.327 141.826 -761.54 138.874C-787.176 133.589 -812.994 124.75 -837.433 113.323C-873.797 96.3515 -907.009 73.9207 -931.703 48.0502" stroke="#2A2F37" stroke-opacity="0.5" stroke-miterlimit="10"/>
<path d="M239.589 -263.368C236.951 -215.005 229.052 -166.695 206.07 -125.542C192.262 -100.746 172.46 -78.6885 147.713 -63.2699C131.592 -53.2101 113.399 -45.9262 93.3829 -42.5201C32.9298 -32.144 -37.1822 -56.5339 -93.5029 -39.2033C-113.963 -32.9607 -130.832 -22.6538 -146.035 -9.41333C-159.042 1.7519 -170.602 14.9752 -182.173 28.072C-198.31 46.4792 -216.125 65.7125 -236.728 78.9104C-248.193 86.2014 -260.525 91.646 -274.16 94.3207C-300.871 99.6285 -327.366 94.1529 -354.594 85.9924C-393.766 74.3916 -434.788 57.8319 -476.395 58.8367C-480.798 58.9743 -485.189 59.2385 -489.621 59.8244C-537.894 66.169 -563.199 100.233 -595.244 120.975C-626.691 141.354 -668.73 149.208 -715.789 144.95C-729.424 143.738 -743.579 141.418 -757.815 138.213C-783.648 132.306 -809.755 123.361 -834.665 112.16C-871.829 95.6308 -906.03 74.6754 -931.492 51.156" stroke="#31363F" stroke-opacity="0.5" stroke-miterlimit="10"/>
<path d="M242.606 -254.801C239.58 -206.855 231.142 -159.078 207.975 -118.42C194.069 -93.9361 174.244 -72.1316 149.625 -56.8499C133.568 -46.8586 115.514 -39.5851 95.788 -36.0732C35.7869 -25.3486 -33.5671 -48.3298 -89.799 -32.3437C-110.433 -26.4704 -127.66 -17.0288 -143.413 -4.44804C-156.808 6.30018 -168.884 19.2435 -180.809 32.303C-197.376 50.6148 -215.243 70.0432 -235.724 83.8054C-246.952 91.3973 -259.186 97.153 -272.485 100.44C-298.676 106.856 -324.541 102.926 -351.255 96.5744C-389.792 87.3472 -431.014 73.2236 -473.242 74.3384C-477.72 74.418 -482.175 74.7507 -486.543 75.268C-535.077 81.0587 -561.235 111.873 -593.137 129.547C-624.366 146.915 -665.34 151.822 -712.077 145.692C-725.694 143.906 -739.744 141.196 -754.078 137.679C-780.032 131.208 -806.58 122.041 -831.948 111.193C-869.914 95.1059 -905.039 75.5575 -931.409 54.3995" stroke="#383C47" stroke-opacity="0.5" stroke-miterlimit="10"/>
<path d="M245.697 -246.176C242.358 -198.589 233.382 -151.345 209.891 -111.173C195.886 -86.9996 176.027 -65.5749 151.547 -50.3036C135.554 -40.3808 117.639 -33.1177 98.128 -29.5581C38.6428 -18.5535 -30.0809 -39.9889 -86.0849 -25.3578C-106.967 -19.9119 -124.554 -11.3355 -140.77 0.770222C-154.628 11.0434 -167.145 23.7647 -179.284 36.7764C-196.216 54.9244 -214.338 74.6268 -234.496 88.8744C-245.625 96.7776 -257.547 102.892 -270.522 106.664C-296.192 114.188 -321.415 111.93 -347.702 107.204C-385.679 100.292 -427.09 88.7311 -469.811 89.819C-474.353 89.9671 -478.82 90.1732 -483.263 90.6325C-532.121 95.9377 -559.145 123.377 -590.765 137.971C-621.914 152.338 -661.683 154.289 -708.088 146.414C-721.611 144.111 -735.708 140.895 -750.064 137.125C-776.139 130.089 -803.052 120.758 -828.815 110.195C-867.443 94.5392 -903.695 76.4766 -930.909 57.6116" stroke="#3F4350" stroke-opacity="0.5" stroke-miterlimit="10"/>
<path d="M248.715 -237.609C245.127 -190.45 235.472 -143.729 211.732 -103.984C197.63 -80.1221 177.748 -58.9505 153.459 -43.8846C137.594 -34.0988 119.818 -26.8461 100.458 -23.1703C41.4246 -11.8172 -26.5411 -31.8438 -82.381 -18.4993C-103.512 -13.4808 -121.457 -5.76953 -138.136 5.86107C-152.383 15.7172 -165.352 28.0901 -177.845 41.0645C-195.206 59.1172 -213.456 78.9564 -233.428 93.7C-244.396 101.846 -256.144 108.33 -268.783 112.714C-293.869 121.277 -318.514 120.76 -344.374 117.658C-381.78 113.189 -423.328 103.995 -466.606 105.125C-471.147 105.273 -475.678 105.547 -480.197 105.949C-529.454 110.71 -557.269 134.832 -588.745 146.357C-619.675 157.714 -658.519 156.728 -704.463 146.971C-717.893 144.151 -732.023 140.555 -746.414 136.406C-772.686 128.747 -799.889 119.311 -826.186 109.042C-865.614 93.8288 -902.854 77.2416 -930.912 60.6695" stroke="#464958" stroke-opacity="0.5" stroke-miterlimit="10"/>
<path d="M251.742 -228.915C247.767 -182.173 237.573 -135.985 213.648 -96.736C199.372 -73.2435 179.606 -52.3354 155.382 -37.338C139.581 -27.6206 121.944 -20.3784 102.874 -16.5968C44.4315 -4.90556 -22.9907 -23.5711 -78.6026 -11.5815C-99.9828 -6.99042 -118.211 -0.0862842 -135.44 10.8846C-150.151 20.2656 -163.484 32.4746 -176.267 45.3433C-194.057 63.3006 -212.424 83.4034 -232.147 98.5743C-243.017 107.031 -254.516 113.943 -266.906 118.754C-291.471 128.426 -315.336 129.571 -340.907 128.104C-377.754 125.95 -419.427 119.25 -463.325 120.49C-467.943 120.58 -472.473 120.854 -476.992 121.255C-526.573 125.532 -555.254 146.277 -586.447 154.723C-617.299 163.08 -654.938 159.137 -700.624 147.577C-714.036 144.182 -728.062 140.196 -742.626 135.677C-769.019 127.455 -796.598 117.728 -823.354 107.812C-863.52 92.972 -901.887 77.8706 -930.713 63.6496" stroke="#4D5060" stroke-opacity="0.5" stroke-miterlimit="10"/>
<path d="M254.76 -220.349C250.471 -173.965 239.739 -128.311 215.49 -89.5475C201.052 -66.2976 181.327 -45.7111 157.294 -30.9192C141.632 -21.2122 124.124 -14.1069 105.14 -10.1407C47.1495 1.89905 -19.59 -15.4159 -74.9625 -4.65466C-96.5163 -0.43285 -115.242 5.61652 -132.871 16.0438C-147.969 25.0079 -161.819 36.9368 -174.956 49.7682C-193.175 67.6301 -211.669 87.8698 -231.196 103.663C-241.903 112.363 -253.229 119.644 -265.284 125.067C-289.328 135.846 -312.551 138.664 -337.696 138.821C-373.971 139.109 -415.844 134.846 -460.236 136.059C-464.853 136.149 -469.459 136.365 -474.053 136.708C-523.97 140.372 -553.644 157.879 -584.416 163.235C-615.252 168.66 -651.623 161.692 -696.976 148.387C-710.294 144.475 -724.366 139.983 -738.953 135.211C-765.467 126.424 -793.412 116.533 -820.702 106.912C-861.668 92.5145 -901.023 78.8885 -930.694 66.9604" stroke="#545669" stroke-opacity="0.5" stroke-miterlimit="10"/>
<path d="M257.776 -211.782C253.163 -165.884 241.765 -120.625 217.33 -82.3576C202.794 -59.419 183.046 -39.0857 159.141 -24.4307C143.607 -14.8607 126.249 -7.63922 107.404 -3.68344C49.8662 8.70486 -16.1153 -7.20131 -71.399 2.21533C-93.2016 6.00974 -112.286 11.1939 -130.454 21.088C-146.015 29.577 -160.241 41.2155 -173.732 54.0096C-192.38 71.7761 -211.002 92.1529 -230.269 108.5C-240.878 117.511 -251.955 125.219 -263.621 131.06C-287.146 142.947 -309.727 147.437 -334.444 149.219C-370.16 151.822 -412.158 150.053 -457.107 151.307C-461.788 151.466 -466.469 151.624 -470.999 151.899C-521.24 155.077 -551.855 169.15 -582.334 171.554C-613.166 173.92 -648.332 163.995 -693.288 148.876C-706.513 144.448 -720.619 139.577 -735.241 134.425C-761.875 125.073 -790.185 115.018 -817.945 105.623C-859.713 91.668 -900.056 79.5175 -930.571 69.8823" stroke="#5B5D71" stroke-opacity="0.5" stroke-miterlimit="10"/>
<path d="M260.868 -203.157C255.943 -157.618 244.005 -112.893 219.311 -75.179C204.601 -52.6096 184.894 -32.5979 161.129 -17.9534C145.658 -8.45184 128.439 -1.24076 109.885 2.82079C52.8624 15.4891 -12.4364 0.933644 -67.5447 9.19037C-89.5323 12.4889 -109.039 16.8764 -127.606 26.2269C-143.631 34.2408 -158.222 45.7154 -172.003 58.4038C-191.08 76.0749 -209.894 96.6571 -228.837 113.49C-239.284 122.744 -250.112 130.879 -261.518 137.274C-284.522 150.269 -306.397 156.362 -330.751 159.837C-365.896 164.883 -408.095 165.55 -453.525 166.904C-458.281 167.004 -462.962 167.163 -467.632 167.448C-518.272 170.083 -549.817 180.848 -579.949 180.104C-610.701 179.47 -644.663 166.588 -689.362 149.666C-702.569 144.663 -716.645 139.343 -731.29 133.938C-758.121 123.964 -786.796 113.746 -815.014 104.704C-857.519 91.1218 -898.914 80.5151 -930.273 73.1729" stroke="#626379" stroke-miterlimit="10"/>
<path d="M263.884 -194.59C258.571 -149.468 246.095 -105.276 221.151 -67.9896C206.343 -45.7315 186.614 -25.9729 163.04 -11.5339C147.633 -2.10081 130.617 5.03142 112.213 9.20914C55.643 22.226 -9.04846 8.96306 -63.8419 16.0495C-86.0784 18.9206 -105.943 22.4429 -125.05 31.2603C-141.463 38.8572 -156.57 50.0518 -170.64 62.6344C-190.083 80.1416 -209.013 100.987 -227.771 118.316C-238.119 127.881 -248.71 136.317 -259.78 143.324C-282.264 157.427 -303.497 165.193 -327.424 170.293C-362.074 177.722 -404.258 180.873 -450.32 182.21C-455.077 182.31 -459.822 182.537 -464.503 182.696C-515.467 184.845 -548.028 192.119 -577.791 188.48C-608.551 184.661 -641.297 168.949 -685.523 150.271C-698.637 144.752 -712.683 138.984 -727.426 133.268C-754.378 122.729 -783.419 112.347 -812.108 103.531C-855.413 90.391 -897.796 81.2598 -929.999 76.2105" stroke="#696A82" stroke-opacity="0.5" stroke-miterlimit="10"/>
<path d="M266.976 -185.965C261.414 -141.27 248.335 -97.5428 223.068 -60.7419C208.161 -38.795 188.473 -19.3581 164.963 -4.98745C149.62 4.37711 132.744 11.4989 114.554 15.7243C58.5751 29.0793 -5.57291 17.1774 -60.2023 22.9774C-82.6876 25.4211 -102.911 28.0782 -122.481 36.4205C-139.357 43.5423 -154.841 54.4465 -169.254 67.1184C-189.125 84.5302 -208.247 105.581 -226.745 123.464C-236.995 133.34 -247.337 142.204 -258.083 149.696C-280.11 164.975 -300.638 174.345 -324.138 181.069C-358.216 190.941 -400.601 196.528 -447.156 197.838C-451.976 198.007 -456.733 198.107 -461.489 198.208C-512.714 199.803 -546.291 203.585 -575.685 197.052C-606.441 190.174 -637.907 171.563 -681.876 151.082C-694.971 144.988 -709.052 138.84 -723.754 132.802C-750.827 121.7 -780.233 111.153 -809.455 102.632C-853.562 89.9345 -896.933 82.2788 -929.98 79.5224" stroke="#70708A" stroke-opacity="0.5" stroke-miterlimit="10"/>
<path d="M269.929 -177.33C263.979 -133.052 250.362 -89.8578 224.909 -53.5528C209.829 -31.9752 190.193 -12.7333 166.875 1.43188C151.66 10.6595 134.923 17.7709 116.959 22.1706C61.4318 35.8741 -1.96958 25.2544 -56.4235 29.8944C-79.233 31.8527 -99.6643 33.7608 -119.784 41.4433C-137.124 48.09 -153.048 58.7723 -167.751 71.3383C-188.052 88.6548 -207.301 109.843 -225.538 128.28C-235.627 138.399 -245.795 147.632 -256.217 155.609C-277.648 172.055 -297.609 183.038 -320.682 191.387C-354.201 203.575 -396.711 211.655 -443.887 213.076C-448.782 213.186 -453.539 213.287 -458.295 213.387C-509.92 214.439 -544.438 214.787 -573.398 205.291C-604.162 195.228 -634.412 173.786 -678.048 151.561C-691.05 144.95 -705.101 138.354 -719.901 132.005C-747.171 120.28 -776.942 109.57 -806.484 101.391C-851.328 89.0667 -895.751 82.9548 -929.566 82.5495" stroke="#777792" stroke-opacity="0.5" stroke-miterlimit="10"/>
<path d="M272.946 -168.763C266.683 -124.844 252.451 -82.2411 226.75 -46.3634C211.508 -25.0286 191.838 -6.16638 168.722 7.9199C153.572 17.079 136.973 24.18 119.16 28.6959C64.1491 42.6794 1.35509 33.3523 -52.848 36.8905C-75.8424 38.3529 -96.6961 39.4643 -117.279 46.6717C-135.007 52.9015 -151.372 63.3618 -166.44 75.764C-187.17 92.9851 -206.536 114.437 -224.524 133.301C-234.514 143.731 -244.434 153.391 -254.532 161.855C-275.441 179.408 -294.761 192.064 -317.332 202.096C-350.28 216.725 -392.926 227.173 -440.659 228.635C-445.554 228.746 -450.45 228.857 -455.218 228.83C-507.166 229.397 -542.637 226.184 -571.368 213.804C-602.063 200.614 -631.097 176.342 -674.337 152.303C-687.245 145.175 -701.342 138.073 -716.165 131.471C-743.556 119.182 -773.692 108.308 -803.768 100.423C-849.413 88.5415 -894.824 83.9051 -929.483 85.7927" stroke="#7E7E9B" stroke-opacity="0.5" stroke-miterlimit="10"/>
<path d="M276.038 -160.138C269.45 -116.704 254.692 -74.5084 228.666 -39.1162C213.326 -18.0926 193.697 0.447956 170.57 14.4077C155.483 23.4983 139.024 30.5889 121.426 35.1525C66.8664 49.4845 4.67975 41.45 -49.2839 43.7598C-72.5272 44.7948 -93.8033 45.1094 -114.786 51.7734C-132.978 57.528 -149.719 67.6979 -165.065 80.1209C-186.224 97.2466 -205.718 118.835 -223.446 138.253C-233.199 148.984 -242.945 159.014 -252.782 168.031C-273.171 186.692 -291.786 200.952 -313.993 212.677C-346.37 229.748 -389.216 242.632 -437.442 244.068C-442.402 244.247 -447.309 244.231 -452.141 244.273C-504.425 244.228 -540.837 237.582 -569.198 222.306C-599.837 205.863 -627.719 178.829 -670.626 153.045C-683.516 145.343 -697.508 137.85 -712.504 130.879C-740.091 117.967 -770.517 106.987 -801.064 99.3293C-847.51 87.8894 -893.908 84.7284 -929.476 88.9774" stroke="#8584A3" stroke-opacity="0.5" stroke-miterlimit="10"/>
<path d="M279.054 -151.571C272.153 -108.497 256.781 -66.8917 230.506 -31.9269C215.068 -11.2146 195.416 7.0729 172.481 20.8272C157.521 29.7808 141.202 36.861 123.829 41.5988C69.7859 56.2109 8.20658 49.469 -45.5062 50.677C-68.9345 51.2161 -90.633 50.734 -112.091 56.7963C-130.746 62.0758 -147.927 72.0237 -163.564 84.341C-185.152 101.371 -204.837 123.165 -222.38 143.079C-232.035 154.122 -241.468 164.51 -251.045 174.081C-270.838 193.908 -288.886 209.782 -310.667 223.132C-342.547 242.587 -385.455 257.897 -434.302 259.442C-439.261 259.622 -444.232 259.674 -449.076 259.59C-501.684 259.059 -538.909 248.842 -567.104 230.751C-597.612 211.112 -624.278 181.248 -666.927 153.66C-679.723 145.442 -693.761 137.443 -708.781 130.218C-736.489 116.742 -767.291 105.472 -798.296 98.1668C-845.479 87.1005 -892.93 85.4834 -929.341 92.0253" stroke="#8C8BAC" stroke-opacity="0.5" stroke-miterlimit="10"/>
<path d="M282.072 -143.004C274.783 -100.347 258.947 -59.217 232.412 -24.8062C216.8 -4.46313 197.265 13.5608 174.394 27.2466C159.574 36.1898 143.393 43.2596 126.16 47.987C72.6438 63.0057 11.6604 57.4298 -41.8769 57.4778C-65.6294 57.5315 -87.611 56.2423 -109.532 61.8295C-128.65 66.634 -146.198 76.4181 -162.263 88.6399C-184.216 105.506 -204.093 127.506 -221.376 147.974C-230.868 159.259 -240.418 169.911 -249.306 180.131C-268.051 201.473 -285.985 218.613 -307.338 233.587C-338.584 255.416 -381.756 273.23 -431.095 274.748C-436.13 274.87 -441.101 274.922 -446.02 274.78C-499.028 273.705 -537.13 259.986 -564.956 239C-595.332 216.166 -620.921 183.482 -663.162 154.207C-675.801 145.404 -689.873 137.025 -704.991 129.489C-732.82 115.449 -763.988 104.015 -795.527 97.0043C-843.511 86.3801 -891.949 86.2385 -929.205 95.0733" stroke="#9391B4" stroke-opacity="0.5" stroke-miterlimit="10"/>
<path d="M285.164 -134.379C277.627 -92.1485 261.113 -51.5415 234.329 -17.5581C218.619 2.47376 198.985 20.1865 176.381 33.7249C161.625 42.5997 145.583 49.6591 128.64 54.4922C75.576 69.8594 15.3277 65.4392 -38.0226 64.4539C-61.9601 64.0116 -84.3641 61.9258 -106.824 66.9798C-126.33 71.3673 -144.329 80.8028 -160.673 93.0454C-183.055 109.817 -203.049 132.08 -220.083 152.975C-229.477 164.571 -238.488 175.756 -247.417 186.298C-266.093 208.4 -282.858 227.618 -303.86 244.159C-334.534 268.43 -377.843 288.612 -427.739 290.172C-432.838 290.361 -437.821 290.287 -442.739 290.145C-496.071 288.585 -534.987 271.295 -562.658 247.367C-592.902 221.338 -617.339 185.891 -659.322 154.813C-671.943 145.435 -686.05 136.677 -701.127 128.819C-729.152 114.156 -760.61 102.616 -792.619 95.8322C-841.329 85.7082 -890.767 86.9155 -928.93 98.1117" stroke="#9A98BC" stroke-opacity="0.5" stroke-miterlimit="10"/>
<path d="M288.115 -125.743C280.19 -83.93 263.212 -43.7981 236.104 -10.3002C220.296 9.42041 200.639 26.88 178.163 40.2814C163.535 49.0192 147.633 56.0683 130.84 61.0176C78.2917 76.6648 18.6508 73.5371 -34.4487 71.45C-58.6464 70.4538 -81.3976 67.6293 -104.257 72.1398C-124.227 76.0522 -142.666 85.2657 -159.3 97.4026C-182.111 114.078 -202.233 136.478 -219.006 157.928C-228.238 169.767 -237.064 181.448 -245.669 192.475C-263.75 215.742 -279.948 236.575 -300.522 254.74C-330.701 281.396 -373.995 304.061 -424.588 305.673C-429.687 305.863 -434.809 305.799 -439.802 305.599C-493.395 303.485 -533.187 282.692 -560.693 255.948C-590.741 226.655 -614.102 188.389 -655.752 155.566C-668.279 145.671 -682.357 136.464 -697.531 128.296C-725.678 113.068 -757.576 101.306 -790.044 94.8752C-839.491 85.1248 -889.981 87.876 -928.988 101.365" stroke="#A19EC5" stroke-opacity="0.5" stroke-miterlimit="10"/>
<path d="M291.209 -117.119C282.971 -75.6644 265.379 -36.1237 238.086 -3.12169C222.04 16.2981 202.564 33.4257 180.151 46.7586C165.587 55.428 149.824 62.4666 133.182 67.5321C81.0859 83.5278 22.1801 81.5557 -30.8077 78.3772C-55.1905 76.8851 -78.364 73.2639 -101.762 77.2412C-122.195 80.6785 -141.075 89.6701 -157.924 101.759C-181.089 118.398 -201.477 140.945 -217.926 162.88C-227.06 175.03 -235.573 187.07 -243.918 198.652C-261.478 223.027 -276.971 245.463 -297.182 265.322C-326.726 294.35 -370.284 319.52 -421.37 321.105C-426.544 321.237 -431.666 321.173 -436.66 320.973C-490.652 318.315 -531.182 294.01 -558.457 264.382C-588.299 231.952 -610.583 190.865 -651.9 156.298C-664.409 145.827 -678.381 136.231 -693.654 127.751C-721.922 111.959 -754.186 100.034 -787.124 93.8286C-837.372 84.5202 -888.849 88.7469 -928.701 104.529" stroke="#A8A5CD" stroke-opacity="0.5" stroke-miterlimit="10"/>
<path d="M294.224 -108.552C285.737 -67.525 267.467 -28.5071 239.926 4.06754C223.782 23.1761 204.282 40.0505 182.061 53.178C167.561 61.7789 152.001 68.7386 135.585 73.9784C84.0802 90.3122 25.7064 89.5747 -27.0306 85.2943C-51.6736 83.2482 -75.1942 78.8884 -99.0555 82.3906C-119.952 85.3528 -139.134 94.1121 -156.475 106.174C-180.069 122.717 -200.51 145.46 -216.838 167.959C-225.874 180.42 -234.074 192.819 -242.094 204.886C-259.059 230.427 -273.91 254.536 -293.769 275.961C-322.667 307.49 -366.437 334.969 -418.08 336.596C-423.318 336.796 -428.375 336.664 -433.52 336.348C-487.836 333.204 -529.18 305.328 -556.289 272.885C-585.999 237.259 -607.206 193.353 -648.126 156.971C-660.542 145.984 -674.56 135.882 -689.856 127.149C-718.32 110.734 -750.873 98.7029 -784.345 92.7926C-835.394 83.9264 -887.86 89.6284 -928.556 107.703" stroke="#AFABD5" stroke-opacity="0.5" stroke-miterlimit="10"/>
<path d="M297.242 -99.9844C288.367 -59.3745 269.634 -20.8317 241.768 11.2574C225.526 30.0547 205.992 46.5494 183.91 59.6666C169.538 68.1304 154.053 75.1483 137.852 80.4357C86.7986 97.1181 29.16 97.5362 -23.39 92.2224C-48.2819 89.749 -72.161 84.524 -96.4972 87.4245C-117.857 89.9117 -137.479 98.449 -155.111 110.406C-179.134 126.853 -199.766 149.801 -215.77 172.786C-224.644 185.49 -232.659 198.385 -240.355 210.937C-256.724 237.644 -271.009 263.367 -290.441 286.417C-318.767 320.388 -362.738 350.303 -414.937 351.971C-420.175 352.171 -425.372 352.05 -430.453 351.665C-485.169 347.978 -527.314 316.658 -554.205 281.203C-583.643 242.372 -603.774 195.645 -644.501 157.529C-656.823 146.026 -670.875 135.543 -686.205 126.431C-714.791 109.452 -747.785 97.1986 -781.576 91.6308C-833.362 83.1381 -886.88 90.3842 -928.419 110.752" stroke="#B6B2DE" stroke-opacity="0.5" stroke-miterlimit="10"/>
<path d="M300.332 -91.3598C291.209 -51.1773 271.798 -13.1573 243.747 18.436C227.406 36.9221 207.85 53.1637 185.96 66.0753C171.651 74.4707 156.306 81.4782 140.319 86.8133C89.7818 103.776 32.8144 105.418 -19.624 99.0127C-44.7123 95.9168 -69.0023 90.0217 -93.8019 92.4471C-115.55 94.5172 -135.624 102.706 -153.534 114.683C-177.922 130.967 -198.746 154.121 -214.49 177.659C-223.266 190.674 -230.968 203.928 -238.479 216.977C-254.252 244.85 -267.906 272.119 -286.975 296.861C-314.742 333.148 -358.838 365.557 -411.594 367.267C-416.907 367.409 -422.104 367.287 -427.324 366.913C-482.3 362.672 -525.323 327.849 -551.984 289.511C-581.29 247.484 -600.205 197.927 -640.663 158.134C-652.903 145.987 -666.99 135.125 -682.418 125.701C-711.124 108.158 -744.483 95.7411 -778.809 90.468C-831.396 82.4174 -885.902 91.1389 -928.21 113.858" stroke="#BDB8E6" stroke-opacity="0.5" stroke-miterlimit="10"/>
<path d="M303.351 -82.7931C293.839 -43.0276 273.965 -5.48263 245.59 25.6252C229.076 43.742 209.572 59.7885 187.809 72.5632C173.565 80.8901 158.498 87.8768 142.662 93.3281C92.5763 110.639 36.2688 113.379 -15.9074 105.998C-41.1806 102.406 -65.893 95.7147 -91.0922 97.5965C-113.304 99.1916 -133.743 107.217 -152.018 119.03C-176.835 135.218 -197.776 158.635 -213.271 182.601C-221.884 195.859 -229.413 209.482 -236.589 223.143C-251.841 252.124 -264.853 281.065 -283.42 307.49C-310.616 346.219 -354.848 380.996 -408.161 382.747C-413.474 382.889 -418.811 382.778 -423.967 382.335C-479.342 377.551 -523.027 339.273 -549.597 298.061C-578.697 252.896 -596.61 200.462 -636.671 158.855C-648.818 146.192 -662.875 134.882 -678.402 125.147C-707.304 106.981 -740.953 94.4581 -775.749 89.4113C-829.137 81.8028 -884.631 91.9996 -927.783 117.012" stroke="#C4BFEE" stroke-opacity="0.5" stroke-miterlimit="10"/>
<path d="M306.378 -74.0995C296.553 -34.6929 276.065 2.26072 247.441 32.9411C230.829 50.7467 211.365 66.4716 189.667 79.1778C175.562 87.4943 160.559 94.4125 144.937 99.9115C95.3676 117.502 39.7951 121.398 -12.3333 112.994C-37.8668 108.849 -62.851 101.476 -88.6642 102.767C-111.339 103.887 -132.219 111.69 -150.848 123.466C-176.094 139.559 -197.163 163.113 -212.536 187.643C-221.051 201.213 -228.268 215.195 -235.119 229.341C-249.636 259.477 -262.222 290.043 -280.361 318.093C-307.061 359.205 -351.418 396.476 -405.288 398.269C-410.666 398.48 -416.013 398.242 -421.169 397.799C-476.869 392.529 -521.367 350.681 -547.707 306.585C-576.461 258.272 -593.372 202.959 -633.24 159.618C-645.293 146.438 -659.46 134.69 -674.945 124.634C-703.969 105.904 -737.983 93.2169 -773.313 88.4647C-827.438 81.2299 -883.984 92.9706 -927.98 120.275" stroke="#CBC5F7" stroke-opacity="0.5" stroke-miterlimit="10"/>
<path d="M309.395 -65.5331C293.3 -3.99632 250.161 51.4051 191.579 85.5969C132.998 119.789 59.6247 132.213 -8.56546 119.785C-34.3593 115.085 -59.6905 106.974 -85.9671 107.789C-140.417 109.371 -185.05 149.02 -211.254 192.517C-237.395 235.945 -250.689 285.04 -276.818 328.595C-302.883 372.081 -347.441 411.788 -401.868 413.623C-465.315 415.685 -516.799 366.331 -545.409 314.95C-574.031 263.442 -589.79 205.367 -629.261 160.213C-663.728 120.801 -715.339 94.0739 -770.266 87.2811C-825.192 80.4883 -882.725 93.7045 -927.566 123.302" stroke="#D2CCFF" stroke-opacity="0.5" stroke-miterlimit="10"/>
<path d="M301.588 -51.8885C285.071 8.85159 241.904 63.1719 183.66 96.4466C125.416 129.721 52.7915 141.898 -14.5338 128.96C-40.7796 123.911 -66.4921 114.682 -92.9127 114.68C-146.525 114.67 -190.645 152.242 -217.27 193.413C-243.831 234.515 -258.294 281.531 -285.094 323.862C-312.191 366.788 -356.112 407.34 -410.349 410.498C-473.317 413.99 -526.021 366.638 -555.583 315.583C-585.145 264.528 -600.492 205.594 -637.863 160.41C-670.195 121.348 -719.435 95.2724 -771.826 87.8443C-824.217 80.4162 -879.66 91.9472 -923.599 119.885" stroke="#CDC9FE" stroke-opacity="0.5" stroke-miterlimit="10"/>
<path d="M293.641 -38.2343C276.69 21.5825 233.507 74.9483 175.612 107.432C117.718 139.916 45.7548 151.662 -20.6417 138.144C-47.4148 132.689 -73.2941 122.389 -99.8587 121.57C-152.495 119.958 -196.241 155.463 -223.222 194.239C-250.343 233.026 -265.899 278.021 -293.296 319.186C-321.5 361.494 -364.697 403.075 -418.82 407.499C-481.296 412.547 -535.244 366.944 -565.735 316.468C-596.225 265.992 -611.234 206.141 -646.366 160.917C-676.426 122.196 -723.509 96.7233 -773.364 88.6598C-823.283 80.6649 -876.572 90.4422 -919.61 116.72" stroke="#C7C6FE" stroke-opacity="0.5" stroke-miterlimit="10"/>
<path d="M285.832 -24.5908C268.384 34.3712 225.173 86.656 167.703 118.408C110.232 150.159 38.9197 161.346 -26.6119 147.318C-53.9123 141.456 -79.9585 130.086 -106.806 128.459C-158.53 125.314 -201.699 158.673 -229.239 195.134C-256.78 231.595 -273.431 274.569 -301.562 314.579C-330.81 356.2 -373.347 398.878 -427.291 404.499C-489.352 411.045 -544.468 367.251 -575.888 317.353C-607.307 267.456 -621.839 206.678 -654.883 161.298C-682.722 123.112 -727.456 98.0369 -774.915 89.3485C-822.298 80.7182 -873.422 88.8686 -915.634 113.428" stroke="#C2C3FD" stroke-opacity="0.5" stroke-miterlimit="10"/>
<path d="M277.961 -10.8776C260.154 47.2191 216.787 98.5599 159.655 129.394C102.522 160.229 31.8712 170.984 -32.72 156.503C-60.5478 150.235 -86.6855 137.852 -113.892 135.36C-164.627 130.739 -207.434 161.905 -235.47 195.982C-263.507 230.059 -281.251 271.013 -310.042 309.925C-340.385 351.055 -382.221 394.508 -436.04 401.522C-497.685 409.566 -553.894 367.637 -586.318 318.26C-618.678 268.816 -632.71 207.363 -663.666 161.827C-689.295 124.049 -731.808 99.5095 -776.732 90.1857C-821.655 80.862 -870.612 87.3852 -911.999 110.226" stroke="#BDC0FD" stroke-opacity="0.5" stroke-miterlimit="10"/>
<path d="M270.078 2.70778C251.773 59.9498 208.455 110.268 151.735 140.243C95.0149 170.218 25.0262 180.542 -38.6249 165.608C-66.9799 158.934 -93.3483 145.549 -120.698 142.239C-170.446 136.143 -212.89 165.116 -241.347 196.867C-269.804 228.618 -288.857 267.503 -318.168 305.307C-349.618 345.819 -390.742 390.175 -444.371 398.512C-505.537 407.986 -563.042 368.001 -596.266 319.067C-629.555 270.201 -643.175 207.889 -671.978 162.129C-695.461 124.828 -735.615 100.813 -778.003 90.8536C-820.39 80.8946 -867.258 85.7326 -907.679 106.845" stroke="#B8BDFC" stroke-opacity="0.5" stroke-miterlimit="10"/>
<path d="M262.207 16.4198C243.468 72.7386 200.134 122.102 143.688 151.229C87.2414 180.355 18.0422 190.11 -44.7325 174.793C-73.6148 167.711 -100.075 153.314 -127.719 149.071C-176.468 141.625 -218.421 168.268 -247.438 197.704C-276.391 227.071 -296.537 263.935 -326.509 300.641C-359.141 340.477 -399.402 385.852 -452.981 395.523C-513.73 406.495 -572.404 368.317 -606.632 319.904C-640.861 271.491 -654.045 208.573 -680.696 162.589C-702.022 125.891 -739.839 102.147 -779.755 91.6214C-819.671 81.0955 -864.309 84.2379 -903.904 103.632" stroke="#B2BAFC" stroke-opacity="0.5" stroke-miterlimit="10"/>
<path d="M254.4 30.0646C235.163 85.5286 191.876 133.869 135.779 162.205C79.6821 190.541 11.1972 199.669 -50.7012 183.968C-80.1108 176.48 -106.726 161.138 -134.59 156.02C-182.263 147.284 -223.941 171.548 -253.315 198.589C-282.752 225.699 -304.142 260.426 -334.71 295.967C-368.449 335.184 -408.062 381.53 -461.387 392.457C-521.657 404.858 -581.487 368.614 -616.72 320.722C-651.953 272.83 -664.562 209.296 -689.211 162.971C-708.381 126.876 -743.849 103.531 -781.304 92.3114C-818.685 81.1501 -861.168 82.5389 -899.926 100.342" stroke="#ADB6FB" stroke-opacity="0.5" stroke-miterlimit="10"/>
<path d="M246.454 43.7189C226.859 98.3176 183.48 145.646 127.796 173.122C72.1119 200.599 4.2773 209.169 -56.7447 193.084C-86.6817 185.189 -113.313 168.893 -141.611 162.851C-188.273 152.893 -229.612 174.711 -259.405 199.426C-289.338 224.152 -309.852 258.495 -343.05 291.301C-380.231 328.1 -416.797 377.149 -469.996 389.468C-529.787 403.299 -590.849 368.931 -626.946 321.55C-663.044 274.168 -675.356 210.038 -697.726 163.352C-714.814 127.803 -747.933 104.855 -782.778 93.0585C-817.698 81.2038 -857.941 81.0235 -895.873 97.1083" stroke="#A8B3FB" stroke-opacity="0.5" stroke-miterlimit="10"/>
<path d="M238.645 57.3623C218.553 111.106 175.158 157.48 119.812 184.039C64.4764 210.726 -2.64395 218.669 -62.7143 202.258C-93.1785 193.957 -119.965 176.716 -148.482 169.799C-194.134 158.618 -234.994 177.98 -265.422 200.321C-295.776 222.721 -317.511 255.18 -351.316 286.694C-389.83 322.7 -425.457 372.826 -478.467 386.469C-537.842 401.797 -600.072 369.237 -637.099 322.435C-674.126 275.632 -686.002 210.896 -706.23 163.859C-721.225 128.982 -751.868 106.295 -784.317 93.8737C-816.765 81.4521 -854.854 79.5182 -891.884 93.9429" stroke="#A3B0FA" stroke-opacity="0.5" stroke-miterlimit="10"/>
<path d="M230.774 71.0747C210.184 123.964 166.837 169.314 111.84 195.083C56.8423 220.853 -9.48847 228.227 -68.7463 211.5C-99.674 202.724 -126.605 184.666 -155.428 176.689C-199.993 164.344 -240.589 181.201 -271.438 201.216C-302.287 221.232 -327.451 249.87 -359.58 282.087C-396.919 319.47 -434.041 368.561 -487.001 383.538C-545.896 400.296 -609.422 369.681 -647.314 323.389C-685.206 277.097 -696.774 211.892 -714.809 164.308C-727.775 130.172 -756.017 107.688 -785.93 94.6312C-815.843 81.5743 -851.841 77.9552 -887.97 90.7198" stroke="#9DADFA" stroke-opacity="0.5" stroke-miterlimit="10"/>
<path d="M222.89 84.6605C201.866 136.626 158.428 180.964 103.855 206.001C49.2814 231.037 -16.4104 237.727 -74.7919 220.616C-106.247 211.434 -133.322 192.558 -162.451 183.52C-206.069 170.022 -246.197 184.295 -277.531 202.054C-308.8 219.743 -335.209 246.244 -367.859 277.353C-406.38 314.06 -442.714 364.111 -495.409 380.47C-553.9 398.6 -618.507 369.977 -657.403 324.206C-696.299 278.435 -707.42 212.751 -723.251 164.748C-734.263 131.293 -759.953 109.129 -787.33 95.4364C-814.707 81.7442 -848.54 76.498 -883.843 87.5444" stroke="#98AAF9" stroke-opacity="0.5" stroke-miterlimit="10"/>
<path d="M215.019 98.3735C193.573 149.543 150.107 192.799 95.8714 216.919C41.6359 241.038 -23.3417 247.101 -80.8354 229.733C-112.754 220.075 -139.972 200.382 -169.396 190.411C-211.981 175.943 -251.717 187.575 -283.482 202.881C-315.247 218.187 -342.964 242.619 -376.135 272.62C-415.978 308.661 -451.385 359.663 -503.89 377.345C-561.901 396.905 -627.741 370.157 -667.577 324.839C-707.413 279.52 -718.278 213.562 -731.788 164.876C-740.899 132.299 -763.996 110.132 -788.902 95.8731C-813.807 81.614 -845.485 74.6142 -879.888 84.0005" stroke="#93A7F9" stroke-opacity="0.5" stroke-miterlimit="10"/>
<path d="M207.137 111.959C185.256 162.205 141.774 204.507 87.8878 227.836C34.0013 251.165 -30.1981 256.533 -86.8155 238.781C-119.336 228.658 -146.624 208.206 -176.354 197.174C-217.98 181.679 -257.324 190.67 -289.509 203.649C-321.759 216.698 -350.795 238.935 -384.411 267.886C-425.436 303.251 -459.993 355.145 -512.435 374.288C-569.967 395.277 -637.039 370.405 -677.804 325.666C-718.569 280.927 -729.19 214.568 -740.367 165.325C-747.588 133.499 -768.07 111.583 -790.515 96.6305C-812.96 81.678 -842.473 73.051 -875.974 80.7772" stroke="#8EA4F9" stroke-opacity="0.5" stroke-miterlimit="10"/>
<path d="M199.265 125.672C176.887 175.063 133.388 216.411 79.9148 238.881C26.4413 261.351 -37.1192 266.034 -92.7735 248.082C-125.758 237.484 -153.317 216.351 -183.15 204.181C-223.818 187.658 -262.706 193.939 -295.451 204.603C-328.196 215.267 -358.541 235.436 -392.602 263.337C-434.949 298.037 -468.578 350.881 -520.831 371.348C-577.959 393.708 -646.176 370.897 -687.881 326.61C-729.586 282.323 -740.091 215.701 -748.872 165.834C-754.33 134.895 -772.144 113.035 -791.978 97.5048C-811.888 81.917 -839.235 71.663 -871.986 77.6129" stroke="#88A1F8" stroke-opacity="0.5" stroke-miterlimit="10"/>
<path d="M191.458 139.315C168.722 187.841 125.132 228.177 71.932 249.798C18.7321 271.419 -43.911 275.396 -98.8167 257.198C-132.264 246.125 -159.956 224.301 -190.17 211.012C-229.868 193.589 -268.3 197.16 -301.541 205.44C-334.782 213.72 -366.435 231.821 -400.941 258.672C-444.61 292.706 -477.388 346.441 -529.44 368.359C-586.088 392.149 -655.537 371.213 -698.107 327.437C-740.741 283.729 -751.205 216.786 -757.386 166.214C-761.094 136.037 -776.153 114.417 -793.527 98.1934C-810.901 81.9703 -836.158 70.031 -868.007 74.3209" stroke="#839EF8" stroke-opacity="0.5" stroke-miterlimit="10"/>
<path d="M183.51 152.969C160.276 200.641 116.734 239.953 63.9473 260.715C11.1604 281.477 -50.8438 284.769 -104.862 266.313C-138.848 254.707 -166.736 232.261 -197.193 217.843C-235.996 199.461 -273.972 200.322 -307.634 206.277C-341.295 212.231 -374.407 228.147 -409.283 254.006C-454.284 287.248 -486.124 342.06 -537.986 365.301C-594.23 390.463 -664.836 371.461 -708.335 328.264C-751.909 285.009 -762.396 217.812 -766.042 166.605C-768.127 137.326 -780.239 115.741 -795.217 98.8925C-810.119 82.1025 -833.146 68.4677 -864.106 70.9709" stroke="#7E9BF7" stroke-opacity="0.5" stroke-miterlimit="10"/>
<path d="M175.704 166.613C152.036 213.361 108.478 251.719 56.0401 271.691C3.60219 291.662 -57.56 294.191 -110.829 275.488C-145.279 263.407 -173.439 240.28 -204.062 224.791C-241.971 205.451 -279.427 203.533 -313.509 207.162C-347.666 210.732 -382.022 224.511 -417.408 249.389C-463.667 281.896 -494.644 337.727 -546.38 362.36C-602.144 388.951 -673.907 371.884 -718.485 329.15C-763.064 286.416 -773.649 218.907 -774.481 167.045C-774.879 138.595 -784.247 117.123 -796.614 99.6979C-808.981 82.2725 -829.918 66.9525 -859.976 67.7956" stroke="#7898F7" stroke-opacity="0.5" stroke-miterlimit="10"/>
<path d="M167.897 180.258C143.731 226.151 100.22 263.486 48.0561 282.608C-4.10803 301.731 -64.492 303.565 -116.798 284.662C-151.787 272.048 -180.132 248.425 -210.944 231.613C-247.948 211.44 -284.884 206.744 -319.462 207.989C-354.039 209.233 -389.854 220.827 -425.684 244.655C-473.341 276.438 -503.315 333.278 -554.862 359.235C-610.222 387.198 -683.206 372.133 -728.649 329.909C-774.092 287.685 -785.054 219.887 -782.996 167.426C-781.91 139.885 -788.257 118.506 -798.164 100.387C-808.134 82.337 -826.842 65.3214 -855.999 64.5044" stroke="#7395F6" stroke-opacity="0.5" stroke-miterlimit="10"/>
<path d="M159.949 193.912C135.36 239.008 91.747 275.204 40.0072 293.594C-11.6687 311.916 -71.4252 312.938 -122.908 293.846C-158.36 280.757 -187.04 256.523 -217.956 238.571C-254.128 217.508 -290.481 209.965 -325.618 208.894C-360.755 207.823 -397.89 217.222 -434.09 240.058C-483.08 271.049 -512.127 328.839 -563.537 356.315C-618.492 385.649 -692.633 372.518 -738.941 330.805C-785.313 289.16 -796.726 221.013 -791.716 167.886C-789.158 141.127 -792.483 119.841 -799.918 101.155C-807.353 82.4694 -823.894 63.8268 -852.226 61.2916" stroke="#6E92F6" stroke-opacity="0.5" stroke-miterlimit="10"/>
<path d="M152.141 207.556C127.055 251.798 83.4253 287.039 32.0985 304.57C-19.3037 322.043 -78.2181 322.302 -128.877 303.021C-164.804 289.33 -193.872 264.679 -224.902 245.461C-260.308 223.577 -296.077 213.187 -331.634 209.79C-367.192 206.393 -405.721 213.539 -442.292 235.383C-492.69 265.524 -520.724 324.448 -571.943 353.248C-626.495 383.953 -701.792 372.756 -749.029 331.622C-796.266 290.488 -808.346 221.945 -800.092 168.257C-796.062 142.28 -796.354 121.213 -801.253 101.892C-806.152 82.5714 -820.604 62.2435 -848.034 58.0483" stroke="#698EF5" stroke-opacity="0.5" stroke-miterlimit="10"/>
<path d="M144.27 221.268C118.75 264.587 75.1043 298.874 24.1151 315.488C-26.8741 332.102 -85.0104 331.665 -134.92 312.137C-171.311 297.971 -200.715 272.708 -231.848 252.351C-266.487 229.645 -301.597 216.466 -337.65 210.685C-373.703 204.904 -413.628 209.797 -450.557 230.776C-502.287 260.124 -529.459 320.067 -580.477 350.317C-634.624 382.394 -711.003 373.19 -759.244 332.576C-807.485 291.963 -820.307 222.966 -808.735 168.775C-803.308 143.522 -800.566 122.675 -802.93 102.718C-805.358 82.8306 -817.655 60.7491 -844.184 54.8938" stroke="#638BF5" stroke-opacity="0.5" stroke-miterlimit="10"/>
<path d="M136.387 234.854C110.433 277.249 66.7713 310.582 16.1311 326.405C-34.5091 342.228 -91.8148 340.901 -140.889 321.311C-177.755 306.544 -207.611 280.931 -238.73 259.172C-272.603 235.644 -307.129 219.619 -343.602 211.512C-380.076 203.404 -421.459 206.113 -458.758 226.1C-511.834 254.529 -538.055 315.675 -588.884 347.25C-642.627 380.698 -720.162 373.427 -769.268 333.325C-818.449 293.164 -832.089 223.654 -817.047 169.077C-810.298 144.49 -804.309 123.91 -804.277 103.328C-804.244 82.7472 -814.236 59.0281 -840.003 51.5231" stroke="#5E88F4" stroke-opacity="0.5" stroke-miterlimit="10"/>
<path d="M128.517 248.567C102.141 290.165 58.4516 322.417 8.22436 337.381C-42.0029 352.345 -98.6058 350.265 -146.856 330.486C-184.121 315.175 -214.441 289.088 -245.675 266.063C-278.856 241.655 -312.659 222.772 -349.553 212.339C-386.522 201.848 -429.3 202.303 -467.033 221.367C-521.517 248.946 -546.736 311.1 -597.364 344.125C-650.703 378.944 -729.459 373.676 -779.505 334.026C-829.551 294.376 -844.234 224.179 -825.711 169.342C-817.641 145.421 -808.543 125.118 -805.9 103.96C-803.332 82.7434 -811.233 57.3392 -836.099 48.1741" stroke="#5985F4" stroke-opacity="0.5" stroke-miterlimit="10"/>
<path d="M120.707 262.21C93.8972 302.885 50.1916 334.182 0.238093 348.298C-49.6401 362.472 -105.401 359.628 -152.903 339.602C-190.643 323.689 -221.414 297.253 -252.623 272.952C-285.038 247.722 -318.182 226.051 -355.647 213.176C-393.037 200.359 -437.21 198.56 -475.376 216.702C-531.28 243.303 -555.55 306.661 -605.976 341.135C-658.911 377.327 -738.748 374.051 -789.798 334.922C-840.849 295.792 -856.499 224.967 -834.282 169.918C-824.89 146.663 -812.608 126.696 -807.504 104.844C-802.4 82.9917 -808.137 55.9604 -832.252 45.019" stroke="#5482F3" stroke-opacity="0.5" stroke-miterlimit="10"/>
<path d="M112.76 275.865C85.4529 315.685 41.7311 346.028 -7.80947 359.284C-57.35 372.54 -112.269 368.933 -159.011 348.786C-197.15 332.33 -228.524 305.429 -259.708 279.853C-291.495 253.811 -323.852 229.214 -361.802 214.081C-399.751 198.949 -445.256 194.829 -483.781 212.105C-541.029 237.787 -564.424 302.29 -614.585 338.147C-667.191 375.651 -748.11 374.368 -800.089 335.818C-852.068 297.267 -868.935 225.386 -843.012 170.251C-832.309 147.535 -816.843 127.904 -809.268 105.485C-801.693 83.0663 -805.275 54.2813 -828.489 41.6799" stroke="#4E7FF3" stroke-opacity="0.5" stroke-miterlimit="10"/>
<path d="M104.954 289.509C77.2877 328.464 33.3991 357.736 -15.7171 370.259C-64.9086 382.725 -118.997 378.227 -164.904 358.019C-203.518 340.961 -235.344 313.711 -266.439 286.79C-297.535 259.869 -329.233 232.483 -367.603 215.024C-405.972 197.566 -452.883 191.066 -491.831 207.545C-550.498 232.251 -572.869 298.015 -622.904 335.264C-675.03 374.198 -757.182 374.79 -810.026 336.751C-862.87 298.711 -881.017 225.843 -851.3 170.806C-839.299 148.503 -820.626 129.461 -810.516 106.406C-800.405 83.3524 -801.896 52.8823 -824.209 38.6207" stroke="#497CF2" stroke-opacity="0.5" stroke-miterlimit="10"/>
</svg>
