<svg width="165" height="300" viewBox="0 0 165 300" fill="none" xmlns="http://www.w3.org/2000/svg">
<path d="M59.0054 -323.825C61.1654 -272.549 61.5133 -221.68 54.8685 -180.152C48.2117 -138.758 33.6924 -107.594 12.689 -105.875C-12.399 -103.838 -43.9524 -142.802 -66.1254 -127.624C-80.4726 -117.784 -87.7786 -87.2339 -95.6144 -60.0287C-103.473 -32.7605 -113.761 -6.49441 -130.538 -8.49182C-160.618 -12.0867 -195.956 -103.761 -224.849 -100.192C-243.902 -97.7892 -250.825 -54.9804 -262.566 -27.9622C-277.433 6.18251 -302.573 15.6998 -329.192 -2.79798C-355.812 -21.2957 -383.373 -67.4841 -402.254 -125.085" stroke="#1C2226" stroke-opacity="0.5" stroke-miterlimit="10"/>
<path d="M60.5034 -314.6C62.5349 -263.818 62.6067 -213.524 55.7903 -172.689C51.6991 -148.018 44.7667 -127.021 35.3467 -113.86C29.2024 -105.246 21.9591 -100.04 13.7826 -99.2095C-11.0662 -96.8188 -42.2224 -134.017 -64.4403 -120.361C-72.3339 -115.493 -78.2522 -105.014 -83.3148 -91.9426C-87.603 -80.8825 -91.2787 -68.0451 -95.0252 -55.6753C-100.258 -38.2907 -106.391 -20.8782 -114.439 -10.9076C-118.893 -5.38089 -123.916 -2.08609 -129.674 -2.22391C-140.985 -2.41025 -153.011 -15.0861 -165.221 -30.4091C-182.825 -52.3927 -200.924 -79.8163 -217.591 -83.7704C-219.38 -84.2389 -221.133 -84.3094 -222.896 -84.1842C-242.116 -82.4584 -249.578 -43.1417 -261.399 -19.2288C-273.018 4.11656 -290.471 12.873 -310.247 6.32897C-315.969 4.42286 -321.868 1.18335 -327.877 -3.25032C-338.695 -11.3231 -349.716 -23.4894 -360.275 -38.6223C-376.004 -61.0464 -390.686 -89.9147 -402.177 -122.092" stroke="#23292E" stroke-opacity="0.5" stroke-miterlimit="10"/>
<path d="M62.0523 -305.386C63.8985 -255.103 63.7168 -205.447 56.7754 -165.101C52.6047 -140.71 45.6732 -120.05 36.3016 -107.02C30.182 -98.4714 23.0329 -93.1916 14.894 -92.2913C-9.68156 -89.4774 -40.4311 -125.108 -62.682 -112.839C-70.6657 -108.377 -76.8146 -98.9133 -82.1064 -86.5293C-86.6119 -76.0234 -90.4811 -63.4755 -94.3176 -51.1864C-99.7317 -33.9604 -105.906 -16.4281 -113.812 -5.8544C-118.183 -0.0578934 -123.055 3.64673 -128.728 4.10912C-139.733 5.07319 -151.414 -5.72149 -163.348 -19.3015C-180.546 -38.7373 -198.58 -63.6505 -215.468 -67.6294C-217.279 -68.0347 -219.043 -68.2378 -220.805 -68.1126C-240.18 -66.9311 -248.135 -31.2295 -260.105 -10.5584C-271.805 9.68444 -289.005 15.5788 -308.692 7.14341C-314.403 4.71401 -320.337 1.07778 -326.379 -3.75218C-337.276 -12.4222 -348.453 -24.7995 -359.212 -39.6878C-375.218 -61.8082 -390.24 -89.1963 -401.942 -119.09" stroke="#2A2F37" stroke-opacity="0.5" stroke-miterlimit="10"/>
<path d="M63.5695 -296.229C65.2874 -246.437 64.83 -197.354 57.7289 -157.564C53.4666 -133.586 46.5702 -113.19 37.2466 -100.291C31.1739 -91.8715 24.0842 -86.5868 16.0169 -85.5476C-8.34338 -82.3171 -38.7101 -116.318 -60.9604 -105.366C-69.0465 -101.443 -75.4139 -92.8605 -80.9228 -81.0305C-85.6458 -71.0781 -89.6516 -58.8126 -93.6694 -46.6798C-99.2644 -29.6116 -105.504 -11.896 -113.245 -0.782277C-117.556 5.3471 -122.333 9.45483 -127.807 10.5301C-138.529 12.7069 -149.787 3.73526 -161.504 -8.11003C-178.353 -25.0071 -196.253 -47.2734 -213.375 -51.4097C-215.185 -51.8149 -216.983 -52.0875 -218.779 -52.0319C-238.344 -51.4637 -246.816 -19.3104 -258.844 -1.8021C-270.646 15.4042 -287.549 18.3124 -307.228 8.04323C-312.929 5.09082 -318.909 0.925461 -324.973 -4.16808C-335.983 -13.5047 -347.283 -26.0237 -358.219 -40.7311C-374.524 -62.4858 -389.863 -88.4588 -401.742 -116.001" stroke="#31363F" stroke-opacity="0.5" stroke-miterlimit="10"/>
<path d="M65.0832 -287.058C66.6163 -237.761 65.9057 -189.311 58.7016 -150.07C54.382 -126.433 47.4636 -106.309 38.1876 -93.5391C32.1391 -85.1852 25.1084 -79.8955 17.1694 -78.711C-6.97673 -75.0641 -36.9397 -107.501 -59.2246 -97.9345C-67.4013 -94.4164 -73.965 -86.7776 -79.7377 -75.703C-84.6436 -66.2338 -88.8773 -54.3262 -93.0422 -42.2795C-98.8181 -25.3685 -105.066 -7.46245 -112.722 4.24783C-116.917 10.7166 -121.633 15.1578 -126.932 16.9087C-137.371 20.2974 -148.276 13.0083 -159.672 3.10486C-176.116 -11.2491 -193.952 -31.0099 -211.319 -35.1082C-213.163 -35.5828 -214.983 -35.7924 -216.756 -35.7998C-236.455 -35.8381 -245.465 -7.16676 -257.608 7.17482C-269.491 21.284 -286.121 21.2713 -305.77 9.106C-311.494 5.56123 -317.452 1.0059 -323.573 -4.42081C-334.662 -14.3545 -346.153 -27.1545 -357.255 -41.5492C-373.86 -62.9391 -389.494 -87.5618 -401.608 -112.763" stroke="#383C47" stroke-opacity="0.5" stroke-miterlimit="10"/>
<path d="M66.6284 -277.822C68.0112 -228.948 67.0475 -181.13 59.6834 -142.442C55.3063 -119.146 48.3536 -99.4247 39.137 -86.6516C33.1126 -78.3628 26.1406 -73.068 18.295 -71.8077C-5.6155 -67.8075 -35.2206 -98.5569 -57.484 -90.3676C-65.7861 -87.324 -72.5462 -80.6279 -78.5361 -70.1059C-83.6595 -61.1888 -88.0868 -49.569 -92.3418 -37.6015C-98.2764 -20.91 -104.612 -2.75668 -112.105 9.49375C-116.239 16.2955 -120.804 21.1461 -125.94 23.4397C-136.097 28.0399 -146.638 22.5646 -157.76 14.3996C-173.834 2.51735 -191.595 -14.6076 -209.162 -18.794C-211.028 -19.2055 -212.859 -19.5475 -214.666 -19.6244C-234.521 -20.2058 -244.082 4.85392 -256.285 16.0375C-268.306 27.0452 -284.605 24.1195 -304.213 10.1913C-309.927 6.1239 -315.931 1.03973 -322.075 -4.65061C-333.244 -15.1813 -344.892 -28.1931 -356.137 -42.3387C-372.987 -63.3582 -388.995 -86.5757 -401.321 -109.5" stroke="#3F4350" stroke-opacity="0.5" stroke-miterlimit="10"/>
<path d="M68.1407 -268.637C69.3957 -220.25 68.1222 -173.071 60.6328 -134.867C56.1984 -111.911 49.2235 -92.4603 40.0766 -79.8795C34.0987 -71.7189 27.1854 -66.4189 19.411 -65.0199C-4.28615 -60.6037 -33.4886 -89.7918 -55.7527 -82.9164C-64.1799 -80.3471 -71.1361 -74.5933 -77.3431 -64.6237C-82.6493 -56.1891 -87.2821 -44.9895 -91.684 -33.1078C-97.7995 -16.5729 -104.179 1.70139 -111.563 14.485C-115.616 21.5564 -120.087 26.8098 -125.047 29.7782C-134.9 35.5263 -145.098 31.9268 -155.947 25.4994C-171.639 16.2202 -189.314 1.53451 -207.104 -2.67687C-208.969 -3.08828 -210.822 -3.36723 -212.663 -3.51367C-232.709 -4.70744 -242.786 16.8118 -255.104 24.8324C-267.206 32.7467 -283.289 26.8965 -302.81 11.0805C-308.515 6.49087 -314.553 1.01062 -320.731 -5.07562C-332.014 -16.2724 -343.785 -29.4263 -355.23 -43.3292C-372.379 -63.9848 -388.706 -85.7911 -401.243 -106.44" stroke="#464958" stroke-opacity="0.5" stroke-miterlimit="10"/>
<path d="M69.6623 -259.326C70.7327 -211.432 69.2065 -164.885 61.6142 -127.228C57.0881 -104.683 50.1479 -85.4955 41.026 -72.9812C35.0722 -64.8858 28.2178 -59.5808 20.5713 -58.0366C-2.85559 -53.1981 -31.7465 -80.9015 -53.9887 -75.4023C-62.5409 -73.3071 -69.6588 -68.4256 -76.1291 -59.2101C-81.6525 -51.3273 -86.4441 -40.3458 -90.9704 -28.6129C-97.2667 -12.2347 -103.677 6.29288 -110.932 19.5463C-114.925 26.9501 -119.267 32.6755 -124.098 36.1165C-133.67 43.0746 -143.446 41.2936 -154.078 36.5964C-169.401 29.7864 -186.978 17.6711 -205.012 13.4977C-206.911 13.0169 -208.764 12.7381 -210.604 12.5917C-230.806 10.8554 -241.433 28.7665 -253.809 33.6323C-266.049 38.4483 -281.803 29.6883 -301.316 12.0421C-307.045 6.86102 -313.061 0.991525 -319.33 -5.4969C-330.693 -17.2899 -342.632 -30.7875 -354.243 -44.3783C-371.669 -64.733 -388.37 -85.1352 -401.084 -103.44" stroke="#4D5060" stroke-opacity="0.5" stroke-miterlimit="10"/>
<path d="M71.1734 -250.149C72.0937 -202.677 70.3149 -156.761 62.5628 -119.656C57.9569 -97.3884 51.0168 -78.5336 41.9645 -66.2113C36.0691 -58.1114 29.2612 -52.9336 21.6632 -51.1879C-1.55092 -45.9337 -30.0744 -72.1474 -52.2833 -67.8911C-60.9262 -66.2003 -68.2969 -62.2665 -74.9618 -53.6656C-80.668 -46.2645 -85.6872 -35.6397 -90.3604 -23.9925C-96.8375 -7.77043 -103.29 10.8783 -110.427 24.797C-114.338 32.4703 -118.586 38.5979 -123.242 42.7132C-132.532 50.8809 -141.944 50.9109 -152.303 47.9493C-167.245 43.7394 -184.758 34.1235 -202.993 29.8621C-204.891 29.3814 -206.778 29.0332 -208.653 28.8174C-229.023 26.4064 -240.244 40.8374 -252.623 42.5568C-265.023 44.3391 -280.424 32.6079 -299.897 13.2015C-305.615 7.49864 -311.678 1.10095 -317.97 -5.65064C-329.412 -18.0397 -341.508 -31.7489 -353.319 -45.0975C-371.046 -65.0891 -388.064 -84.0818 -400.99 -100.114" stroke="#545669" stroke-opacity="0.5" stroke-miterlimit="10"/>
<path d="M72.6837 -240.973C73.4419 -194.057 71.3659 -148.646 63.511 -112.088C58.848 -90.1601 51.8858 -71.5753 42.8808 -59.3822C37.0318 -51.4104 30.2947 -46.0951 22.7557 -44.3434C-0.245268 -38.6739 -28.3665 -63.3284 -50.6103 -60.4535C-59.3781 -59.2362 -66.9447 -56.2432 -73.8606 -48.2632C-79.7837 -41.4133 -84.9736 -31.1388 -89.7935 -19.5773C-96.4511 -3.51176 -102.947 15.2577 -109.942 29.778C-113.793 37.7834 -117.913 44.3825 -122.383 48.9763C-131.392 58.3527 -140.44 60.1926 -150.526 58.9659C-165.098 57.2225 -182.514 50.1743 -200.97 45.8879C-202.891 45.4703 -204.811 45.0527 -206.663 44.774C-227.189 41.8211 -238.994 52.5785 -251.419 51.2789C-263.992 49.8968 -279.063 35.259 -298.472 14.0309C-304.18 7.80666 -310.277 1.01367 -316.603 -6.13317C-328.125 -19.1178 -340.378 -33.0381 -352.365 -46.2073C-370.392 -65.8354 -387.727 -83.419 -400.864 -97.1791" stroke="#5B5D71" stroke-opacity="0.5" stroke-miterlimit="10"/>
<path d="M74.2266 -231.74C74.835 -185.246 72.5067 -140.466 64.5145 -104.522C59.7598 -83.0033 52.7977 -64.7509 43.8518 -52.5543C38.0267 -44.6474 31.3482 -39.3269 23.9367 -37.4302C1.17057 -31.4084 -26.5837 -54.5747 -48.8166 -52.8785C-57.687 -52.1974 -65.4718 -50.0818 -72.5821 -42.7157C-78.7221 -36.4165 -84.0707 -26.3595 -89.0149 -14.9463C-95.8531 0.963219 -102.414 19.9166 -109.246 34.9757C-113.015 43.2503 -117.006 50.3207 -121.336 55.5187C-130.064 66.1035 -138.726 69.6895 -148.562 70.2595C-162.753 71.1137 -180.105 66.5621 -198.75 62.3201C-200.704 61.8332 -202.624 61.4157 -204.532 61.1305C-225.249 57.5666 -237.626 64.7847 -250.087 60.2725C-262.797 55.797 -277.54 38.2539 -296.942 15.1981C-302.674 8.38312 -308.784 1.13189 -315.132 -6.27781C-326.768 -19.9273 -339.177 -34.0589 -351.331 -46.9168C-369.635 -66.245 -387.309 -82.3577 -400.658 -93.8473" stroke="#626379" stroke-miterlimit="10"/>
<path d="M75.736 -222.575C76.1602 -176.574 73.5796 -132.423 65.4624 -96.9618C60.6505 -75.783 53.6663 -57.8001 44.79 -45.7955C38.9888 -37.9536 32.3912 -32.6909 25.0506 -30.6558C2.4972 -24.219 -24.9243 -45.967 -47.0891 -45.4424C-56.0844 -45.2344 -64.0649 -44.0585 -71.426 -37.3126C-77.7484 -31.4946 -83.3242 -21.7938 -88.3926 -10.5291C-95.3889 5.16136 -101.981 24.3678 -108.706 39.9586C-112.415 48.565 -116.29 55.9741 -120.445 61.8453C-128.892 73.6375 -137.19 79.0317 -146.753 81.3346C-160.598 84.7154 -177.796 82.7353 -196.697 78.399C-198.651 77.9122 -200.592 77.5577 -202.512 77.1403C-223.385 73.035 -236.379 76.5139 -248.852 69.0554C-261.747 61.2866 -276.148 40.9722 -295.452 16.1658C-301.174 8.83003 -307.296 1.12094 -313.701 -6.62079C-325.416 -20.8653 -337.982 -35.2078 -350.313 -47.8867C-368.916 -66.852 -386.907 -81.5572 -400.467 -90.7774" stroke="#696A82" stroke-opacity="0.5" stroke-miterlimit="10"/>
<path d="M77.2763 -213.339C77.5732 -167.822 74.7182 -124.238 66.4415 -89.3279C61.5724 -68.4885 54.5883 -50.8377 45.7367 -38.8991C39.9595 -31.1221 33.4204 -25.8542 26.1729 -23.7437C3.88858 -16.8856 -23.2229 -37.1534 -45.3887 -37.9385C-54.5089 -38.2033 -62.685 -37.9667 -70.2626 -31.7713C-76.8016 -26.5034 -82.5479 -17.1522 -87.7508 -5.84057C-94.9275 9.69393 -101.585 29.084 -108.168 45.2758C-111.819 54.2139 -115.565 62.0938 -119.558 68.5056C-127.745 81.5677 -135.658 88.7062 -144.949 92.7411C-158.414 98.7168 -175.548 99.2307 -194.648 94.8065C-196.624 94.3827 -198.577 93.896 -200.531 93.4094C-221.538 88.7001 -235.149 88.4418 -247.634 78.0385C-260.701 67.1102 -274.739 43.963 -294.036 17.3309C-299.783 9.40503 -305.939 1.30114 -312.344 -6.766C-324.138 -21.6053 -336.861 -36.1588 -349.391 -48.596C-368.294 -67.1986 -386.601 -80.4973 -400.373 -87.4493" stroke="#70708A" stroke-opacity="0.5" stroke-miterlimit="10"/>
<path d="M78.7614 -204.117C78.8742 -159.092 75.7673 -116.138 67.388 -81.7725C62.4275 -61.342 55.4556 -43.891 46.6735 -32.1442C40.9426 -24.495 34.4621 -19.222 27.3197 -16.9039C5.24785 -9.63137 -21.4745 -28.4757 -43.629 -30.4377C-52.9082 -31.2444 -61.211 -31.8078 -69.0513 -26.3642C-75.8068 -21.6463 -81.7458 -12.5817 -87.0727 -1.4184C-94.4296 13.9601 -101.13 33.4706 -107.572 50.2629C-111.141 59.4696 -114.793 67.7506 -118.623 74.7028C-126.496 89.0405 -134.08 97.9157 -143.098 103.682C-156.194 112.118 -173.231 115.195 -192.575 110.808C-194.585 110.315 -196.538 109.829 -198.491 109.342C-219.688 104.023 -233.882 100.099 -246.357 86.6894C-259.607 72.4713 -273.305 46.5558 -292.56 18.1685C-298.297 9.72238 -304.465 1.16115 -310.926 -7.23766C-322.834 -22.7406 -335.714 -37.505 -348.352 -49.6245C-367.531 -67.9275 -386.178 -79.7574 -400.126 -84.3729" stroke="#777792" stroke-opacity="0.5" stroke-miterlimit="10"/>
<path d="M80.2695 -194.954C80.2327 -150.35 76.8397 -108.094 68.3354 -74.21C63.2954 -54.0557 56.2893 -37.0058 47.5886 -25.3183C41.8815 -17.7339 35.4594 -12.4557 28.3876 -9.99953C6.55023 -2.37549 -19.8402 -19.804 -41.9494 -22.8728C-51.3309 -24.2146 -59.8515 -25.6535 -67.908 -20.7598C-74.8456 -16.5221 -80.9772 -7.74378 -86.4625 3.20199C-93.9997 18.4247 -100.731 38.188 -107.044 55.4485C-110.553 64.9866 -114.078 73.738 -117.745 81.2303C-125.337 96.7737 -132.558 107.454 -141.269 115.02C-153.986 126.049 -170.938 131.553 -190.504 127.142C-192.513 126.649 -194.522 126.156 -196.486 125.538C-217.839 119.678 -232.627 111.958 -245.172 95.6001C-258.571 78.1629 -271.929 49.4804 -291.12 19.2758C-296.847 10.3096 -303.061 1.22174 -309.546 -7.4393C-321.533 -23.5364 -334.568 -38.5115 -347.406 -50.3896C-366.885 -68.3304 -385.847 -78.7552 -400.007 -81.105" stroke="#7E7E9B" stroke-opacity="0.5" stroke-miterlimit="10"/>
<path d="M81.8073 -185.723C81.6091 -141.673 77.9764 -99.9136 69.313 -66.5807C64.2159 -46.7655 57.21 -30.0473 48.4997 -18.4951C42.8165 -10.9756 36.4529 -5.69226 29.4741 -3.16083C7.8489 4.87726 -18.2095 -11.1359 -40.2852 -15.4432C-49.7913 -17.257 -58.5295 -19.571 -66.7796 -15.2896C-73.9336 -11.6013 -80.2353 -3.17205 -85.8325 7.75773C-93.5497 22.8246 -100.324 42.7083 -106.496 60.5687C-109.889 70.4445 -113.32 79.5966 -116.847 87.6913C-124.159 104.44 -130.995 116.862 -139.456 126.219C-151.793 139.839 -168.681 147.834 -188.446 143.335C-190.477 142.905 -192.498 142.28 -194.484 141.724C-216.004 135.192 -231.375 123.81 -243.931 104.512C-257.492 83.7259 -270.531 52.3408 -289.682 20.3829C-295.432 10.8276 -301.625 1.35221 -308.2 -7.70954C-320.301 -24.4697 -333.458 -39.586 -346.473 -51.2855C-366.25 -68.8641 -385.529 -77.8846 -399.921 -77.9069" stroke="#8584A3" stroke-opacity="0.5" stroke-miterlimit="10"/>
<path d="M83.3122 -176.566C82.9646 -132.936 79.046 -91.8753 70.2579 -59.0237C65.1039 -39.5475 58.0759 -23.0981 49.4349 -11.7374C43.7979 -4.34551 37.4928 0.942895 30.619 3.68163C9.22825 12.0707 -16.4983 -2.52783 -38.5284 -7.94075C-48.1367 -10.2891 -57.0923 -13.4776 -65.5703 -9.87759C-72.9404 -6.73839 -79.4344 1.40468 -85.1555 12.1863C-93.0526 27.0974 -99.8916 47.1641 -105.958 65.5547C-109.291 75.7614 -112.572 85.3205 -115.959 94.0174C-122.956 112.039 -129.463 126.195 -137.652 137.281C-149.644 153.42 -166.413 163.911 -186.421 159.45C-188.452 159.02 -190.494 158.458 -192.491 157.77C-214.168 150.698 -230.075 135.531 -242.722 113.351C-256.41 89.2865 -269.109 55.1376 -288.253 21.3581C-293.993 11.2834 -300.232 1.28208 -306.829 -8.04146C-319.009 -25.395 -332.335 -40.8538 -345.514 -52.2426C-365.567 -69.522 -385.184 -77.0759 -399.787 -74.8349" stroke="#8C8BAC" stroke-opacity="0.5" stroke-miterlimit="10"/>
<path d="M84.8192 -167.409C84.288 -124.27 80.1525 -83.7681 71.2277 -51.5295C65.9823 -32.4614 58.9889 -16.2741 50.3726 -4.97924C44.7939 2.4172 38.5471 7.71069 31.7319 10.4552C10.5874 19.3273 -14.8195 6.01036 -36.8383 -0.576899C-46.6054 -3.46607 -55.7217 -7.52205 -64.4154 -4.47096C-72.0016 -1.88056 -78.6536 6.04588 -84.5551 16.673C-92.6097 31.3656 -99.5138 51.6152 -105.439 70.6051C-108.691 81.0798 -112.003 90.8939 -115.068 100.344C-121.545 120.055 -127.93 135.528 -135.847 148.341C-147.438 167.006 -164.165 180.046 -184.373 175.497C-186.437 174.998 -188.478 174.436 -190.51 173.68C-212.376 165.999 -228.842 147.111 -241.501 121.994C-255.316 94.6535 -267.732 57.7357 -286.8 22.2742C-292.508 11.6176 -298.781 1.22268 -305.435 -8.43185C-317.694 -26.3783 -331.175 -42.0475 -344.554 -53.1951C-364.905 -70.1127 -384.838 -76.2637 -399.651 -71.7605" stroke="#9391B4" stroke-opacity="0.5" stroke-miterlimit="10"/>
<path d="M86.3545 -158.193C85.6964 -115.538 81.253 -75.6707 72.2036 -43.913C66.9014 -25.1835 59.8515 -9.33407 51.339 1.83865C45.7841 9.1703 39.5958 14.4689 32.9078 17.3578C11.9753 26.6431 -13.0554 14.6139 -35.0509 6.98499C-44.92 3.56187 -54.2535 -1.36768 -63.1972 1.06548C-70.9649 3.17666 -77.821 10.6852 -83.8341 21.2963C-92.0685 35.8333 -99.0032 56.335 -104.8 75.7916C-107.993 86.5968 -111.051 97.0253 -114.114 106.8C-120.516 127.298 -126.299 145.057 -133.979 159.527C-145.19 180.778 -161.832 196.242 -182.26 191.668C-184.346 191.232 -186.399 190.538 -188.43 189.782C-210.451 181.562 -227.454 158.892 -240.216 130.765C-254.157 100.15 -266.256 60.5342 -285.316 23.2532C-291.049 12.0085 -297.356 1.2203 -304.01 -8.75846C-316.382 -27.3668 -329.985 -43.1767 -343.54 -54.146C-364.156 -70.6326 -384.416 -75.5135 -399.462 -68.6866" stroke="#9A98BC" stroke-opacity="0.5" stroke-miterlimit="10"/>
<path d="M87.8344 -148.972C86.9928 -106.807 82.3327 -67.4979 73.1244 -36.2898C67.7653 -17.8986 60.6933 -2.31742 52.2277 8.72683C46.7189 15.931 40.5889 21.2347 33.9714 24.2614C13.2728 33.8972 -11.4267 23.2802 -33.3769 14.5474C-43.3823 10.5213 -52.8986 4.78792 -62.0355 6.61002C-70.0191 8.17299 -77.0673 15.3959 -83.2041 25.8591C-91.6182 40.2406 -98.5956 60.8624 -104.252 80.9178C-107.363 91.9906 -110.316 102.951 -113.216 113.264C-119.305 135.034 -124.76 154.524 -132.168 170.72C-143.034 194.486 -159.523 212.511 -180.229 207.906C-182.314 207.47 -184.423 206.77 -186.488 205.944C-208.642 197.123 -226.203 170.736 -239.056 139.731C-253.102 105.781 -264.917 63.3989 -283.937 24.3683C-289.659 12.605 -295.978 1.36074 -302.689 -8.94868C-315.14 -28.1495 -328.933 -44.2387 -342.653 -54.8979C-363.544 -71.0859 -384.142 -74.5026 -399.398 -65.416" stroke="#A19EC5" stroke-opacity="0.5" stroke-miterlimit="10"/>
<path d="M89.3684 -139.763C88.3778 -98.0178 83.4324 -59.4054 74.122 -28.7401C68.6494 -10.6936 61.6342 4.56326 53.1932 15.5418C47.7082 22.6814 41.6365 27.9901 35.0894 31.1545C14.6023 41.2033 -9.72153 31.8724 -31.6829 22.0298C-41.7903 17.4703 -51.5236 10.8642 -60.9103 12.0691C-69.1096 13.0841 -76.3498 20.0216 -82.5758 30.4063C-91.1351 44.7017 -98.2119 65.4368 -103.705 86.0279C-106.757 97.431 -109.56 108.797 -112.321 119.712C-118.129 142.683 -123.2 163.91 -130.36 181.893C-140.825 208.181 -157.273 228.751 -178.177 224.059C-180.296 223.553 -182.405 222.854 -184.469 222.028C-206.813 212.599 -224.875 182.504 -237.797 148.561C-251.935 111.408 -263.467 66.2619 -282.446 25.4826C-288.192 13.1318 -294.489 1.50116 -301.256 -9.13873C-313.787 -28.9316 -327.736 -45.2308 -341.632 -55.712C-362.821 -71.5388 -383.734 -73.5548 -399.201 -62.2097" stroke="#A8A5CD" stroke-opacity="0.5" stroke-miterlimit="10"/>
<path d="M90.8679 -130.619C89.7506 -89.3568 84.4978 -51.3778 75.063 -21.1923C69.5335 -3.48369 62.4962 11.5052 54.1244 22.2927C48.6632 29.3676 42.672 34.6188 36.2296 37.99C16.0106 48.458 -8.01681 40.4687 -29.9328 29.5235C-40.1764 24.3617 -50.0924 16.9526 -59.6943 17.6097C-68.1093 18.0771 -75.4847 24.7358 -81.9132 35.0289C-90.652 49.169 -97.7372 70.0933 -103.147 91.2759C-106.139 103.009 -108.793 114.782 -111.391 126.234C-116.886 150.475 -121.595 173.501 -128.518 193.138C-138.57 222.077 -154.967 244.998 -176.092 240.281C-178.233 239.838 -180.319 239.076 -182.451 238.112C-204.95 228.145 -223.547 194.275 -236.56 157.457C-250.825 117.035 -262.075 69.1255 -280.99 26.5358C-286.726 13.667 -293.069 1.51162 -299.859 -9.38934C-312.502 -29.8432 -326.573 -46.2831 -340.667 -56.5236C-362.155 -71.9894 -383.383 -72.6055 -399.06 -59.0031" stroke="#AFABD5" stroke-opacity="0.5" stroke-miterlimit="10"/>
<path d="M92.3697 -121.476C91.0692 -80.7025 85.6 -43.2811 76.0067 -13.6445C70.4204 3.72615 63.3491 18.3152 55.0361 29.1062C49.6211 36.0538 43.6658 41.3727 37.3161 44.8188C17.3085 55.6992 -6.34349 48.9947 -28.2362 37.0102C-38.6039 31.3783 -48.7144 23.0348 -58.5434 23.0127C-67.1738 22.9327 -74.741 29.3062 -81.2928 39.4515C-90.211 53.4363 -97.361 74.543 -102.608 96.2605C-105.519 108.261 -108.067 120.564 -110.503 132.554C-115.685 158.065 -120.067 182.819 -126.718 204.178C-136.392 235.699 -152.726 261.1 -174.072 256.358C-176.212 255.916 -178.354 255.147 -180.463 254.121C-203.151 243.546 -222.272 206.034 -235.365 166.15C-249.7 122.467 -260.667 71.7963 -279.598 27.4538C-285.324 14.0673 -291.701 1.51953 -298.524 -9.77419C-311.247 -30.8193 -325.507 -47.5381 -339.709 -57.4622C-361.472 -72.6298 -383.037 -71.7841 -398.924 -55.9257" stroke="#B6B2DE" stroke-opacity="0.5" stroke-miterlimit="10"/>
<path d="M93.8989 -112.272C92.4719 -71.982 86.6957 -35.1937 77.0004 -6.09937C71.3574 10.9336 64.2641 25.2548 56.0203 35.8548C50.6291 42.7378 44.732 48.0618 38.475 51.5826C18.7009 62.8126 -4.5981 57.4548 -26.5019 44.3624C-36.9832 38.0661 -47.2983 28.9832 -57.3424 28.414C-66.1538 27.8562 -73.9246 33.8128 -80.5877 43.9423C-89.6628 57.7091 -96.8777 78.998 -101.984 101.313C-104.836 113.643 -107.234 126.351 -109.565 138.872C-114.433 165.651 -118.466 192.07 -124.869 215.214C-134.176 249.181 -150.413 277.131 -171.979 272.364C-174.153 271.853 -176.294 271.084 -178.459 270.052C-201.28 258.877 -220.958 217.657 -234.12 174.839C-248.581 127.89 -259.209 74.4668 -278.121 28.4416C-283.848 14.4059 -290.26 1.46603 -297.14 -10.1575C-309.941 -31.7936 -324.357 -48.7219 -338.757 -58.4056C-360.817 -73.2125 -382.696 -70.9684 -398.759 -52.7861" stroke="#BDB8E6" stroke-opacity="0.5" stroke-miterlimit="10"/>
<path d="M95.3984 -103.145C93.7884 -63.3432 87.7961 -27.1117 77.9423 1.43447C72.2083 18.0608 65.1271 32.1837 56.9302 42.6556C51.5627 49.4741 45.7803 54.8097 39.5935 58.4679C20.0305 70.11 -2.928 65.9662 -24.7745 51.9048C-35.3575 45.0763 -45.8893 35.1226 -56.126 33.944C-65.1527 32.8394 -73.0807 38.5803 -79.9015 48.4931C-89.1558 62.1048 -96.4013 83.6452 -101.379 106.425C-104.15 119.022 -106.455 132.129 -108.612 145.319C-113.201 173.297 -116.873 201.511 -122.97 226.446C-131.9 262.991 -148.052 293.356 -169.839 288.565C-172.012 288.054 -174.209 287.279 -176.351 286.184C-199.361 274.402 -219.505 229.551 -232.792 183.794C-247.345 133.651 -257.726 77.3998 -276.574 29.567C-282.291 15.0142 -288.715 1.61952 -295.651 -10.3338C-308.566 -32.6298 -323.103 -49.6984 -337.679 -59.2045C-360.036 -73.6509 -382.23 -70.0092 -398.502 -49.5733" stroke="#C4BFEE" stroke-opacity="0.5" stroke-miterlimit="10"/>
<path d="M96.9035 -93.8694C95.1449 -54.4868 88.8681 -18.9504 78.8903 9.11684C73.0996 25.4058 66.0187 39.1986 57.8463 49.6049C52.5368 56.428 46.7784 61.6995 40.6841 65.4324C21.3544 77.4236 -1.22931 74.5625 -23.1092 59.457C-33.828 52.0275 -44.5076 41.3418 -55.0276 39.4784C-64.2695 37.8274 -72.3889 43.2836 -79.3551 53.1114C-88.7884 66.5681 -96.0765 88.2279 -100.971 111.598C-103.683 124.524 -105.838 138.036 -107.834 151.762C-112.053 181.014 -115.455 210.947 -121.281 237.601C-129.867 276.654 -145.922 309.565 -167.929 304.749C-170.124 304.3 -172.332 303.394 -174.474 302.3C-197.639 289.981 -218.316 241.363 -231.672 192.675C-246.26 139.346 -256.393 80.269 -275.256 30.6863C-280.964 15.6168 -287.456 1.7613 -294.392 -10.515C-307.385 -33.4013 -322.078 -50.6791 -336.852 -59.9451C-359.484 -74.0938 -382.014 -68.9926 -398.496 -46.3045" stroke="#CBC5F7" stroke-opacity="0.5" stroke-miterlimit="10"/>
<path d="M98.399 -84.7477C95.3449 -23.3585 80.8399 28.3671 58.7755 56.3385C36.711 84.3099 7.32174 88.0325 -21.3745 66.7995C-32.2291 58.7694 -43.0907 47.283 -53.8253 44.8735C-76.0756 39.769 -92.102 75.0856 -100.345 116.644C-108.566 158.141 -111.188 207.062 -119.397 248.69C-127.584 290.255 -143.576 325.641 -165.802 320.8C-191.716 315.078 -215.688 257.879 -230.391 201.422C-245.106 144.832 -254.922 83.0695 -273.722 31.6818C-290.138 -13.1726 -312.856 -47.0825 -335.785 -60.871C-358.714 -74.6595 -381.558 -68.1623 -398.249 -43.2232" stroke="#D2CCFF" stroke-opacity="0.5" stroke-miterlimit="10"/>
<path d="M95.6368 -71.4913C92.3662 -11.0283 77.8006 39.5359 55.8413 66.5806C33.882 93.6252 4.81143 97.1829 -23.5342 75.5501C-34.5845 67.1125 -45.6573 54.4384 -56.4885 51.172C-78.4675 44.5377 -94.389 77.7492 -102.931 116.826C-111.451 155.84 -114.67 202.435 -123.217 242.683C-131.852 283.508 -147.52 319.81 -169.572 316.359C-195.185 312.173 -219.52 256.934 -234.581 200.744C-249.642 144.554 -259.33 82.0129 -277.254 30.8997C-292.76 -13.291 -314.449 -46.2079 -336.355 -60.3247C-358.26 -74.4416 -380.325 -69.4259 -396.727 -46.1058" stroke="#CDC9FE" stroke-opacity="0.5" stroke-miterlimit="10"/>
<path d="M92.8171 -58.2541C89.3187 1.15247 74.7044 50.6885 52.8621 76.9394C31.0198 103.19 2.22136 106.383 -25.7519 84.2884C-37.0318 75.3752 -48.2247 61.591 -59.1523 57.4693C-80.8039 49.3143 -96.6771 80.4177 -105.495 116.954C-114.37 153.484 -118.151 197.824 -127.002 236.765C-136.118 276.781 -151.416 314.199 -173.329 312.066C-198.628 309.544 -223.35 255.999 -238.745 200.34C-254.14 144.68 -263.734 81.2933 -280.727 30.4609C-295.269 -13.0603 -316.02 -45.0613 -336.904 -59.5058C-357.81 -73.8878 -379.074 -70.4136 -395.188 -48.7097" stroke="#C7C6FE" stroke-opacity="0.5" stroke-miterlimit="10"/>
<path d="M90.0537 -45.0287C86.3056 13.3839 71.6312 61.7607 49.9404 87.2874C28.2497 112.814 -0.288377 115.51 -27.9115 93.0186C-39.4202 83.6309 -50.7327 68.739 -61.8126 63.7571C-83.1592 54.147 -98.9051 83.0891 -108.078 117.144C-117.25 151.2 -121.591 193.289 -130.801 230.916C-140.375 270.062 -155.326 308.654 -177.078 307.775C-202.097 306.845 -227.17 255.062 -242.898 199.934C-258.625 144.806 -268.069 80.5827 -284.201 29.8943C-297.79 -12.7636 -317.538 -44.0368 -337.458 -58.8145C-357.344 -73.5232 -377.796 -71.4563 -393.656 -51.4354" stroke="#C2C3FD" stroke-opacity="0.5" stroke-miterlimit="10"/>
<path d="M87.2644 -31.7442C83.3235 25.6813 68.5451 73.0245 46.96 97.6275C25.3749 122.23 -2.8906 124.563 -30.1294 101.744C-41.8663 91.8825 -53.2637 75.9542 -64.5295 70.045C-85.537 59.0515 -101.246 85.7602 -110.75 117.276C-120.253 148.791 -125.154 188.632 -134.688 225.016C-144.729 263.486 -159.335 302.924 -180.934 303.49C-205.674 304.149 -231.063 254.195 -247.157 199.53C-263.228 144.802 -272.497 80.0093 -287.769 29.466C-300.418 -12.4604 -319.209 -42.8815 -338.111 -57.9848C-357.013 -73.0881 -376.653 -72.4262 -392.26 -54.0856" stroke="#BDC0FD" stroke-opacity="0.5" stroke-miterlimit="10"/>
<path d="M84.4633 -18.6305C80.2738 37.8019 65.4703 84.0564 44.0252 107.806C22.5801 131.555 -5.41283 133.524 -32.2675 110.379C-44.2319 100.045 -55.7702 83.0765 -67.1309 76.3171C-87.7994 63.9433 -103.471 88.4221 -113.271 117.471C-123.071 146.52 -128.62 184.04 -138.421 219.189C-148.94 256.852 -163.189 297.264 -184.615 299.21C-209.053 301.394 -234.835 253.322 -251.215 199.064C-267.617 144.868 -276.758 79.3082 -291.149 28.8486C-302.883 -12.2842 -320.662 -41.8476 -338.546 -57.2756C-356.43 -72.7035 -375.295 -73.5126 -390.592 -56.8431" stroke="#B8BDFC" stroke-opacity="0.5" stroke-miterlimit="10"/>
<path d="M81.6711 -5.38473C77.2558 49.9927 62.4054 95.2217 41.0442 118.112C19.6831 141.002 -7.99293 142.483 -34.4858 119.075C-46.6769 108.271 -58.2993 90.2709 -69.8227 82.5257C-90.1406 68.9055 -105.731 91.0337 -115.882 117.613C-126.011 144.131 -132.117 179.41 -142.241 213.319C-153.271 250.105 -167.096 291.627 -188.403 294.944C-212.562 298.711 -238.692 252.394 -255.436 198.6C-272.179 144.806 -281.168 78.7439 -294.68 28.3691C-305.487 -11.8396 -322.28 -40.8082 -339.17 -56.4975C-356.061 -72.1868 -374.095 -74.4576 -389.138 -59.4629" stroke="#B2BAFC" stroke-opacity="0.5" stroke-miterlimit="10"/>
<path d="M78.9018 8.00709C74.2369 62.416 59.3559 106.577 38.104 128.688C16.8521 150.798 -10.5527 151.725 -36.695 128.045C-49.1175 116.766 -60.8508 97.7911 -72.5072 89.1272C-92.4492 74.3257 -108.054 94.0409 -118.483 118.11C-128.933 142.242 -135.665 175.16 -146.093 207.782C-157.603 243.779 -171.1 286.35 -192.22 290.981C-216.087 296.268 -242.564 251.815 -259.677 198.462C-276.791 145.11 -285.575 78.5259 -298.283 28.0779C-308.17 -11.2246 -323.972 -39.4803 -339.889 -55.5679C-355.773 -71.5868 -373.018 -75.3866 -387.803 -61.9269" stroke="#ADB6FB" stroke-opacity="0.5" stroke-miterlimit="10"/>
<path d="M76.0767 21.4218C71.2186 74.873 56.2498 117.964 35.1279 139.235C14.006 160.505 -13.1517 160.94 -38.9453 136.988C-51.5997 125.234 -63.3882 105.29 -75.2683 95.6329C-94.8581 79.7128 -110.457 96.9565 -121.184 118.582C-131.968 140.201 -138.361 172.817 -150.013 202.301C-163.059 235.382 -175.152 281.07 -196.13 287.139C-219.707 293.944 -246.565 251.283 -263.993 198.374C-281.421 145.465 -290.114 78.3435 -301.907 27.8322C-310.909 -10.6361 -325.723 -38.1813 -340.601 -54.5303C-355.513 -70.948 -371.926 -76.0758 -386.465 -64.2795" stroke="#A8B3FB" stroke-opacity="0.5" stroke-miterlimit="10"/>
<path d="M73.3077 34.8354C68.2003 87.3234 53.178 129.414 32.1519 149.777C11.1378 170.27 -15.7508 170.152 -41.1622 145.996C-54.0482 133.767 -65.948 112.85 -77.9614 102.275C-97.1994 85.238 -112.736 100.019 -123.852 119.128C-134.935 138.306 -141.931 168.828 -153.897 196.901C-167.525 228.99 -179.168 275.871 -199.982 283.313C-223.292 291.697 -250.509 250.763 -268.273 198.36C-286.037 145.958 -294.583 78.305 -305.517 27.7242C-313.623 -9.77979 -327.406 -36.7396 -341.336 -53.4249C-355.267 -70.1101 -370.894 -76.7639 -385.153 -66.5607" stroke="#A3B0FA" stroke-opacity="0.5" stroke-miterlimit="10"/>
<path d="M70.5139 48.3152C65.1575 99.8406 50.1039 140.869 29.1856 160.456C8.26727 180.043 -18.3185 179.44 -43.4039 155.074C-56.4991 142.31 -68.4981 120.55 -80.6907 108.86C-99.543 90.7752 -115.107 103.021 -126.522 119.692C-137.938 136.362 -146.544 162.542 -157.782 191.524C-170.846 225.148 -183.151 270.762 -203.857 279.57C-226.878 289.47 -254.497 250.386 -272.575 198.426C-290.653 146.467 -299.095 78.4087 -309.162 27.5658C-316.396 -8.91261 -329.182 -35.3561 -342.109 -52.3707C-355.036 -69.3852 -369.9 -77.5013 -383.881 -68.8895" stroke="#9DADFA" stroke-opacity="0.5" stroke-miterlimit="10"/>
<path d="M67.7093 61.6521C62.1263 112.154 46.9852 152.116 26.2083 170.996C5.43152 189.876 -20.9198 188.653 -45.6578 164.015C-58.9841 150.777 -71.0823 128.176 -83.4539 115.372C-101.977 96.2338 -117.491 105.892 -129.227 120.188C-140.94 134.422 -150.171 158.253 -161.679 186.024C-175.255 218.795 -187.179 265.463 -207.687 275.71C-230.454 287.055 -258.384 249.893 -276.832 198.37C-295.279 146.847 -303.563 78.3901 -312.752 27.4158C-319.147 -8.10679 -330.87 -33.8975 -342.795 -51.2411C-354.72 -68.5848 -368.788 -78.0929 -382.524 -71.1395" stroke="#98AAF9" stroke-opacity="0.5" stroke-miterlimit="10"/>
<path d="M64.9115 75.1222C59.1141 124.731 43.9081 163.563 23.2274 181.538C2.54671 199.513 -23.5357 197.737 -47.9138 172.959C-61.4486 159.187 -73.6455 135.746 -86.1836 121.96C-104.332 101.97 -119.829 108.974 -131.874 120.706C-143.919 132.437 -153.795 153.982 -165.572 180.543C-179.717 212.454 -191.202 260.18 -211.547 271.796C-234.024 284.652 -262.334 249.276 -281.128 198.128C-299.922 146.98 -308.113 78.313 -316.392 26.9543C-321.96 -7.41966 -332.622 -32.8806 -343.567 -50.4903C-354.513 -68.1 -367.798 -79.1291 -381.254 -73.7639" stroke="#93A7F9" stroke-opacity="0.5" stroke-miterlimit="10"/>
<path d="M62.1069 88.4579C56.0834 137.045 40.8241 174.88 20.2509 192.081C-0.322419 209.283 -26.1147 206.894 -50.1458 181.845C-63.9451 167.532 -76.207 143.321 -88.9236 128.422C-106.732 107.512 -122.212 111.866 -134.555 121.166C-146.919 130.529 -157.453 149.661 -169.464 175.082C-184.121 206.14 -195.204 254.855 -215.429 267.963C-237.618 282.33 -266.306 248.735 -285.435 198.092C-304.564 147.449 -312.674 78.4395 -320.032 26.8264C-324.786 -6.53161 -334.365 -31.4028 -344.345 -49.4092C-354.324 -67.4156 -366.815 -79.8337 -379.992 -76.0548" stroke="#8EA4F9" stroke-opacity="0.5" stroke-miterlimit="10"/>
<path d="M59.3065 101.92C53.0351 149.548 37.7227 186.387 17.2789 202.754C-3.16488 219.12 -28.7231 216.113 -52.3618 190.991C-66.3693 176.145 -78.7741 151.22 -91.5908 135.155C-109.059 113.326 -124.501 114.969 -137.197 121.835C-149.892 128.7 -161.07 145.553 -173.316 169.835C-188.54 200.035 -199.186 249.806 -219.248 264.28C-241.183 280.087 -270.204 248.472 -289.679 198.202C-309.154 147.933 -317.228 78.7063 -323.644 26.7773C-327.629 -5.44152 -336.116 -29.9158 -345.062 -48.1814C-354.042 -66.5155 -365.739 -80.321 -378.706 -78.2636" stroke="#88A1F8" stroke-opacity="0.5" stroke-miterlimit="10"/>
<path d="M56.5316 115.314C50.0684 161.99 34.6691 197.766 14.2988 213.292C-6.07159 228.818 -31.2841 225.205 -54.6205 199.937C-68.8359 184.558 -81.3274 158.926 -94.3561 141.683C-111.472 119.067 -126.876 118.003 -139.902 122.374C-152.929 126.746 -164.75 141.32 -177.23 164.465C-193.021 193.808 -203.265 244.565 -223.152 260.534C-244.799 277.849 -274.198 248.011 -293.985 198.184C-313.794 148.418 -321.865 78.9068 -327.262 26.6069C-330.491 -4.6042 -337.84 -28.4832 -345.822 -47.1445C-353.804 -65.8058 -364.742 -81.0656 -377.432 -80.5911" stroke="#839EF8" stroke-opacity="0.5" stroke-miterlimit="10"/>
<path d="M53.6975 128.704C46.987 174.423 31.5569 209.143 11.316 223.835C-8.92496 238.528 -33.9038 234.298 -56.8821 208.89C-71.339 192.91 -83.9391 166.634 -97.1236 148.222C-113.922 124.751 -129.287 120.983 -142.61 122.931C-155.933 124.879 -168.465 137.041 -181.145 159.117C-197.514 187.474 -207.31 239.415 -227.034 256.746C-248.427 275.498 -278.169 247.505 -298.29 198.182C-318.444 148.789 -326.534 79.0559 -330.936 26.448C-333.453 -3.63236 -339.6 -27.1023 -346.641 -46.0968C-353.648 -65.0229 -363.772 -81.7287 -376.195 -82.9656" stroke="#7E9BF7" stroke-opacity="0.5" stroke-miterlimit="10"/>
<path d="M50.9197 142.086C43.984 186.787 28.501 220.514 8.36711 234.436C-11.7667 248.359 -36.4345 243.456 -59.1111 217.902C-73.7756 201.391 -86.5181 174.403 -99.8244 154.89C-116.306 130.565 -131.611 124.034 -145.23 123.561C-158.883 123.02 -172.034 132.849 -184.971 153.851C-201.883 181.291 -211.266 234.346 -230.849 253.101C-251.955 273.356 -282.041 247.207 -302.562 198.249C-323.083 149.291 -331.227 79.2669 -334.522 26.3636C-336.306 -2.64935 -341.331 -25.6554 -347.342 -44.908C-353.353 -64.1607 -362.72 -82.3176 -374.866 -85.1339" stroke="#7898F7" stroke-opacity="0.5" stroke-miterlimit="10"/>
<path d="M48.1403 155.466C40.9578 199.211 25.4441 231.884 5.38367 244.969C-14.6768 258.053 -39.0554 252.541 -61.3407 226.916C-76.2461 209.805 -89.0851 182.305 -102.537 161.433C-118.69 136.386 -133.933 127.095 -147.882 124.136C-161.831 121.177 -175.691 128.599 -188.861 148.467C-206.372 174.984 -215.286 229.157 -234.707 249.272C-255.559 270.96 -286.009 246.714 -306.841 198.198C-327.673 149.681 -335.982 79.3546 -338.138 26.2255C-339.267 -1.66537 -343.059 -24.1947 -348.108 -43.8416C-353.18 -63.4265 -361.735 -83.0262 -373.603 -87.4201" stroke="#7395F6" stroke-opacity="0.5" stroke-miterlimit="10"/>
<path d="M45.3011 168.845C37.9058 211.704 22.2938 243.188 2.37434 255.571C-17.5231 267.893 -41.6807 261.635 -63.6309 235.933C-78.7432 218.293 -91.7461 190.145 -105.297 168.114C-121.155 142.276 -136.317 130.166 -150.617 124.786C-164.917 119.406 -179.43 124.43 -192.799 143.232C-210.886 168.766 -219.365 223.989 -238.633 245.653C-259.232 268.773 -290.025 246.366 -311.167 198.29C-332.331 150.277 -340.838 79.5801 -341.834 26.1637C-342.322 -0.7365 -344.882 -22.7898 -348.959 -42.7002C-353.037 -62.6107 -360.802 -83.5895 -372.427 -89.6274" stroke="#6E92F6" stroke-opacity="0.5" stroke-miterlimit="10"/>
<path d="M42.5194 182.211C34.8778 224.116 19.2132 254.61 -0.57721 266.164C-20.4015 277.65 -44.2485 270.722 -65.864 244.943C-81.1947 226.643 -94.3715 198.039 -108.034 174.72C-123.62 148.155 -138.698 133.23 -153.293 125.437C-167.889 117.645 -183.087 120.205 -196.655 137.944C-215.351 162.427 -223.351 218.896 -242.457 241.916C-262.803 266.467 -293.938 245.897 -315.412 198.323C-336.885 150.75 -345.681 79.6089 -345.394 26.0485C-345.241 0.138021 -346.558 -21.3095 -349.643 -41.545C-352.727 -61.7805 -359.738 -84.2052 -371.086 -91.8171" stroke="#698EF5" stroke-opacity="0.5" stroke-miterlimit="10"/>
<path d="M39.7129 195.645C31.8473 236.535 16.1304 266.04 -3.56486 276.697C-23.2601 287.354 -46.8187 279.818 -68.1335 253.894C-83.6705 235.066 -97.0109 205.816 -110.772 181.34C-126.086 154.049 -141.049 136.38 -155.972 126.11C-170.895 115.839 -186.778 115.939 -200.534 132.746C-219.805 156.247 -227.393 213.823 -246.324 238.328C-266.418 264.307 -297.86 245.64 -319.699 198.501C-341.538 151.361 -350.654 79.709 -349.053 26.0734C-348.293 1.0835 -348.37 -19.7589 -350.462 -40.3189C-352.577 -60.8172 -358.811 -84.7477 -369.883 -93.9316" stroke="#638BF5" stroke-opacity="0.5" stroke-miterlimit="10"/>
<path d="M36.8959 208.934C28.8065 248.81 13.0374 277.326 -6.55083 287.217C-26.139 297.107 -49.3993 288.774 -70.368 262.903C-86.1228 243.416 -99.6585 213.775 -113.486 187.891C-128.529 159.875 -143.409 139.396 -158.626 126.719C-173.844 114.042 -190.433 111.747 -204.386 127.491C-224.243 149.882 -231.374 208.762 -250.143 234.62C-269.984 262.025 -301.767 245.192 -323.915 198.492C-346.097 151.725 -355.568 79.4941 -352.586 25.9201C-351.254 1.7818 -350.001 -18.3813 -351.159 -39.2717C-352.316 -60.1622 -357.707 -85.4603 -368.559 -96.2208" stroke="#5E88F4" stroke-opacity="0.5" stroke-miterlimit="10"/>
<path d="M34.0856 222.352C25.7847 261.344 9.9518 288.744 -9.5072 297.807C-28.9662 306.87 -51.972 297.863 -72.6064 271.916C-88.5447 251.841 -102.287 221.678 -116.225 194.512C-131.029 165.704 -145.771 142.427 -161.282 127.346C-176.827 112.198 -194.099 107.447 -208.273 122.193C-228.736 143.535 -235.401 203.525 -253.995 230.864C-273.584 259.693 -305.728 244.752 -328.218 198.425C-350.708 152.098 -360.635 79.0874 -356.262 25.7059C-354.358 2.41865 -351.833 -17.072 -351.967 -38.2175C-352.135 -59.4311 -356.774 -86.1692 -367.349 -98.4978" stroke="#5985F4" stroke-opacity="0.5" stroke-miterlimit="10"/>
<path d="M31.2975 235.705C22.7733 273.686 6.88837 300.099 -12.4975 308.33C-31.8497 316.628 -54.5459 306.954 -74.8805 280.863C-91.0362 260.132 -104.973 229.578 -118.966 201.137C-133.499 171.606 -148.125 145.595 -163.997 127.977C-179.835 110.427 -197.789 103.225 -212.183 116.972C-233.264 137.139 -239.473 198.43 -257.894 227.247C-277.231 257.5 -309.681 244.456 -332.535 198.562C-355.389 152.668 -365.737 78.944 -359.885 25.8285C-357.411 3.39091 -353.581 -15.3603 -352.76 -36.8971C-351.939 -58.4338 -355.792 -86.5424 -366.16 -100.574" stroke="#5482F3" stroke-opacity="0.5" stroke-miterlimit="10"/>
<path d="M28.4529 249.055C19.684 286.086 3.74721 311.514 -15.5098 318.919C-34.7668 326.324 -57.1535 315.984 -77.1765 289.879C-93.5153 268.561 -107.715 237.481 -121.762 207.766C-136.079 177.507 -150.545 148.642 -166.732 128.688C-182.919 108.734 -201.532 99.0215 -216.112 111.84C-237.776 130.9 -243.564 193.421 -261.789 223.653C-280.907 255.259 -313.663 244.11 -336.846 198.717C-360.029 153.324 -370.923 78.4263 -363.582 25.7069C-360.549 3.98872 -355.417 -14.0236 -353.63 -35.8211C-351.843 -57.6185 -354.924 -87.2254 -365.016 -102.821" stroke="#4E7FF3" stroke-opacity="0.5" stroke-miterlimit="10"/>
<path d="M25.6631 262.383C16.7052 298.472 0.649136 322.781 -18.4675 329.491C-37.6178 336.134 -59.7073 324.999 -79.3855 298.948C-95.941 276.975 -110.335 245.506 -124.415 214.457C-138.495 183.409 -152.845 151.817 -169.324 129.468C-185.804 107.118 -205.11 94.8301 -219.897 106.783C-242.178 124.669 -247.477 188.555 -265.562 220.195C-284.395 253.288 -317.524 243.895 -341.015 198.941C-364.505 153.987 -375.965 77.9776 -367.092 25.8511C-363.513 4.72177 -357.055 -12.2936 -354.282 -34.4132C-351.508 -56.5328 -353.839 -87.5746 -363.656 -104.733" stroke="#497CF2" stroke-opacity="0.5" stroke-miterlimit="10"/>
</svg>
